<svg height="110" viewBox="0 0 110 110" width="110" xmlns="http://www.w3.org/2000/svg"><g fill="none" fill-rule="evenodd"><path d="m0 0h110v110h-110z" fill="#fafafa" opacity="0"/><path d="m72 17c.0914473 0 .180042.0149966.2642192.0430816 1.5028705.1731046 2.8828352.85592 3.9443084 1.9676704 1.238816 1.2960435 1.8720533 2.9936575 1.7832545 4.7826035l-1.8977821 38.2066445h.3325594c1.969636 0 3.5734406 1.6472809 3.5734406 3.6736622l.0007521 3.976709c6.5716975 2.8453134 11.30972 9.0843117 11.9300946 16.461398 1.758513.4235251 3.0691533 2.006349 3.0691533 3.888948 0 .7280637-.1960228 1.411136-.5381684 1.9996222l6.2864264-.0003394c.690915 0 1.251742.4482958 1.251742 1.0005777s-.560827.9994223-1.251742.9994223h-58.4979618c-.6909151 0-1.2502962-.4471404-1.2502962-.9994223s.5593811-1.0005777 1.2502962-1.0005777l6.2878722.0003394c-.3421456-.5884862-.5381684-1.2715585-.5381684-1.9996222 0-2.206204 1.7999449-4.0007172 4.011388-4.0007172l.0674382.0005469c.6584194-7.3286302 5.3819411-13.5193317 11.9212644-16.3502847l-.0000906-3.9766c0-1.793082 1.2546223-3.289331 2.9091831-3.6100927l-1.9009495-38.270214c-.0887988-1.7874962.5429828-3.4851103 1.7832545-4.7826035 1.238816-1.2960435 2.9114359-2.010752 4.7092476-2.010752.1244098 0 .2482261.0034211.3713459.0102206.0410901-.0067896.0841779-.0102206.1279184-.0102206zm-19.7643644 71.4853586-.2242476-.0008687c-.8388233 0-1.519378.6799354-1.519378 1.5162273s.6805547 1.5162274 1.519378 1.5162274h38.977224c.8388233 0 1.5222556-.6799355 1.5222556-1.5162274 0-.6039886-.3564817-1.1264209-.8705241-1.370057-.2336159.2308061-.5465111.3693398-.8919242.3693398h-37.4968386c-.4181317 0-.7886124-.2030037-1.0159451-.5146414zm19.765087-18.0131742c-9.0463898 0-16.5121502 6.8188672-17.4082443 15.5278039h34.8150451c-.8960395-8.7089367-8.3604109-15.5278039-17.4068008-15.5278039zm-3.0816974 5.3133967c.2430071.6270531-.0790852 1.3284548-.7232697 1.5655286-2.0432727.7547082-3.7745185 2.189776-4.8730832 4.0428793-.2300658.3885765-.6484982.606011-1.0784338.606011-.212811 0-.4256219-.0519037-.6226158-.1627252-.5952955-.3366728-.7980411-1.0787558-.4543802-1.6595164 1.3847091-2.3356675 3.5688972-4.1466867 6.1470731-5.0977874.6413086-.2398793 1.3602645.078557 1.6047096.7056101zm-15.5727448-32.7855811c4.2199754 0 7.6537196 3.3560886 7.6537196 7.4809963v8.3217712c0 1.6145757-.5908532 3.1793358-1.6649601 4.4062731 1.0684438 1.2190037 1.6649601 2.7756457 1.6649601 4.4071956 0 .7642066-.6342705 1.3837638-1.4157824 1.3837638s-1.4157824-.6195572-1.4157824-1.3837638c0-1.1833949-.5304464-2.3001845-1.4535366-3.0640222l-.2359637-.1948339c-.2888196-.2378229-.468152-.5780443-.4983554-.9453875-.0302033-.3673432.0906101-.7311808.3360124-1.0112546l.8664588-.9892989c.6361582-.7261992.9853845-1.6527675.9853845-2.6086716v-8.3217712c0-2.598893-2.1633155-4.7134686-4.8221548-4.7134686h-23.9682519c-.6912794 0-1.3646255.1328413-2.00135.3950184l-6.2166785 2.8374539h24.8407901c4.410544 0 7.9992099 3.5670422 7.9992099 7.951704 0 4.3844736-3.5886659 7.9517039-7.9992099 7.9517039l-28.9285245.0001275c-.167198.0622529-.3494542.0964646-.5402058.0964646l-1.5289693-.0008011c-2.3701458.4623805-4.1638063 2.5434254-4.1638063 5.0331023 0 2.8442626 2.3143951 5.1450763 5.1591686 5.1450763h34.8566364c.784021 0 1.4196421.6318911 1.4196421 1.4113112 0 .7794202-.6356211 1.4113113-1.4196421 1.4113113h-34.8566364c-4.4103548 0-7.9984528-3.5670422-7.9984528-7.9515158 0-2.2150107.90903579-4.2188272 2.3744099-5.6628855-1.41925625-.7814807-2.3744099-2.2306831-2.3744099-3.8856907 0-1.2899147.58022339-2.45476 1.50816944-3.2759883-.92819-.86814-1.50816944-2.099918-1.50816944-3.4638491 0-2.6246626 2.1480131-4.7600706 4.7881688-4.7600706h1.6818312l11.7312015-5.3553506c.0147242-.006642.0292595-.0130996.0441725-.0191881.9961444-.4149447 2.0500529-.6254613 3.1326545-.6254613zm-4.9646785 26c.8937873 0 1.6183981.6716 1.6183981 1.5s-.7246108 1.5-1.6183981 1.5h-29.7632038c-.8937873 0-1.6183981-.6716-1.6183981-1.5s.7246108-1.5 1.6183981-1.5zm28.0449575-4.3959422-.7623974.0012995c-.230298.2434404-.55696.3946427-.9171752.3946427h-6.4925022c-.348866 0-.6662597-.1418246-.8951223-.3719091-.4723719.1004496-.826346.5312418-.826346 1.0455713v2.2219488c1.7925736-.5235195 3.624657-.7867835 5.4669837-.7867835s3.6744101.263264 5.4669837.7867835v-2.2219488c0-.5897116-.4668008-1.0696044-1.0404243-1.0696044zm11.5734406-19.6040578c.4918444 0 .9378025.2866746 1.1356874.7322976l2.2455637 5.023902 4.0738484 2.7262474c.3412798.2284882.5449005.610248.5449005 1.017553 0 .4087242-.2036207.7890648-.5449005 1.017553l-4.0738484 2.7262474-2.2455637 5.0253212c-.1978849.4442038-.643843.7308784-1.1356874.7308784-.4904105 0-.9363685-.2866746-1.1356874-.7308784l-2.2441298-5.0253212-4.0738483-2.7262474c-.3412798-.2284882-.5463345-.6088288-.5463345-1.017553 0-.407305.2050547-.7890648.5463345-1.017553l4.0738483-2.7262474 2.2441298-5.023902c.1993189-.445623.6452769-.7322976 1.1356874-.7322976zm-41.9992099 6.8226225-31.0207901-.0006225-1.9646405.8979262c-.5674889.2592232-1.2209744.1187868-1.6286443-.3032499-.3388361.3473043-.547431.8215998-.547431 1.3433943 0 1.0684567.8743102 1.9376363 1.9488846 1.9376363h32.6207252c.784021 0 1.419642.6318911 1.419642 1.4113112 0 .7794202-.635621 1.4113113-1.419642 1.4113113l-31.3704326.0009907c-.2352966.1508354-.519651.239021-.8259037.239021h-.4262898c-1.0203163 0-1.8503875.7802564-1.8503875 1.7395669s.8300712 1.7397509 1.8503875 1.7397509l1.6217194-.0009546c.5141576-.1035655 1.0460469-.1579189 1.5904655-.1579189h30.0023373c2.8449627 0 5.1593579-2.3010019 5.1593579-5.1290814 0-2.8282678-2.3143952-5.1290815-5.1593579-5.1290815zm22.6161683-31.080913c-.7584291.792993-1.14565 1.833887-1.0917885 2.9269707l1.9038301 38.3313198h4.142l1.9053015-38.3313198c.0538615-1.0930837-.3348152-2.1339777-1.0932442-2.9284205-.3976082-.414932-.8673555-.7326199-1.3823396-.9412257l-.0007177 1.9815339c0 .6730815-.448037 1.2194321-1 1.2194321s-1-.5463506-1-1.2194321l.0006312-2.2405994c-.9091187.1119521-1.7413974.5289674-2.3836728 1.201741zm19.3830416 28.5243497-1.2532712 2.8071407c-.0946406.2100388-.2480731.3902749-.4402223.5208395l-2.8492561 1.9059606 2.8492561 1.9073797c.1921492.1291455.3455817.3093816.4402223.5208396l1.2532712 2.8057215 1.2547051-2.8057215c.0946407-.211458.2466392-.3916941.4402223-.5208396l2.8492561-1.9073797-2.8492561-1.9059606c-.1935831-.1305646-.3455816-.3108007-.4402223-.5208395zm-49.5-26.2660592c.4863367 0 .925883.2859321 1.1229698.7304007l1.3668472 3.0872169 2.4699664 1.6660496c.3374582.2278964.5402166.6086673.5402166 1.0163328 0 .40625-.2027584.7870209-.5402166 1.0149172l-2.4699664 1.6660497-1.3668472 3.0886324c-.1970868.4430531-.6366331.7304007-1.1229698.7304007s-.925883-.2873476-1.1229698-.7304007l-1.3682651-3.0886324-2.4699664-1.6660497c-.3360403-.2293118-.5387987-.6086672-.5387987-1.0149172 0-.4076655.2027584-.7870209.5387987-1.0163328l2.4699664-1.6660496 1.3682651-3.0886324c.1970868-.4430531.6366331-.7289852 1.1229698-.7289852zm0 4.2535932-.3885022.8761977c-.0935808.2109103-.2438773.3906795-.4352926.5194905l-1.2590874.8507186 1.2590874.8493031c.1914153.128811.3417118.3085802.4352926.5194905l.3885022.8761977.3870843-.8761977c.0935808-.2109103.2438773-.3906795.4352926-.5194905l1.2590874-.8493031-1.2590874-.8507186c-.1914153-.128811-.3417118-.3085802-.4352926-.5194905z" fill="#0daf4b"/></g></svg>