<svg height="110" viewBox="0 0 110 110" width="110" xmlns="http://www.w3.org/2000/svg"><g fill="none" fill-rule="evenodd"><path d="m0 0h110v110h-110z" fill="#fafafa" opacity="0"/><path d="m65.9471725 14c.7568579 0 1.3712112.6108919 1.3712112 1.3670087l-.0015834 17.3070244c0 .4909235.399013.887135.8882789.887135h4.7485708c.4892659 0 .8882789-.3962115.8882789-.8855564l.0237507-17.3070245c0-.7545383.6143533-1.3654301 1.3712112-1.3654301.7584413 0 1.3712112.6140489 1.3696309 1.3685872l-.0221705 17.308603c-.001458.9171872-.3476209 1.7557402-.9157892 2.3936436l.019438 43.9630091 2.7330775.0000955c.5953527 0 1.1210364.3820047 1.3031257.9471192l1.7377968 5.3807853 2.8081008.0004301c3.1335184 0 5.6827678 2.543015 5.6827678 5.6653513l-.0008686 2.2342186 2.6767888.0009826c.7568579 0 1.3712112.6124704 1.3712112 1.3654302 0 .7561168-.6143533 1.3685872-1.3712112 1.3685872h-74.259161c-.7568579 0-1.3696278-.6124704-1.3696278-1.3685872 0-.7529598.6127699-1.3654302 1.3696278-1.3654302l4.3789971-.0002338c-.4805279-.8170949-.7562128-1.767722-.7562128-2.7811395l-.000183-3.7499905c-2.891829-.919402-4.9922291-3.6232173-4.9922291-6.8056527v-47.2107341c0-10.3188634 8.4220234-18.7166535 18.7741929-18.7166535h18.3862636c2.7297553 0 4.9496607 2.2146804 4.9496607 4.934491l.0008666 56.2186536c.3045148.2256363.5991321.4670319.8826621.7237299.5605182.5082873.6016862 1.3717443.0934197 1.9305446-.5082665.5603789-1.3759613.5998422-1.9364795.0931334-.3442653-.3122213-.7100497-.5946894-1.0936747-.8460533-.0405447-.0207954-.0785523-.0451693-.115214-.0712979-1.4069761-.8943092-3.0471272-1.3730987-4.7414712-1.3730987-4.8831585 0-8.8558709 3.9573797-8.8558709 8.8255723 0 4.6506934 3.6256597 8.4730229 8.2070926 8.8052848l-.0004094-2.2117568c0-3.1223363 2.547666-5.6653513 5.6811844-5.6653513l2.8067771-.0004301 1.7391205-5.3807853c.1820892-.5651145.7093564-.9471192 1.304709-.9471192l2.4091705-.0000955.000055-43.9598665c-.5705785-.6394852-.917677-1.4814433-.917677-2.4031004l.0015833-17.3070244c0-.7561168.6143533-1.3670087 1.3712112-1.3670087zm-25.0402561 73.0709295-6.4589164-.0009295.0008999 3.4146093c0 1.0134175-.2756849 1.9640446-.7561542 2.7811395l11.0263842.0002212c-1.8714479-1.5789569-3.2359621-3.7375332-3.8122135-6.1950405zm43.3631844 1.028518h-27.0378779c-1.621386 0-2.9419288 1.3149171-2.9419288 2.9313339v2.2352012h32.9201521v-2.2352012c0-1.6164168-1.3189595-2.9313339-2.9403454-2.9313339zm-52.5621008-1.0294475h-6.974l.0008345 3.4146093c0 1.5327546 1.2508739 2.7813733 2.7883405 2.7813733h1.3965453c1.5374666 0 2.7883406-1.2486187 2.7883406-2.7813733zm45.7139618-5.3004657h-13.3415999l-1.1622044 3.5958958h15.6660087zm-29.7459618-65.0345343-11.9018071.0005959c-8.8416204 0-16.0333539 7.1696922-16.0333539 15.9826361l-.000839 6.087768 12.7755871.0006298c2.6347522 0 4.7786551 2.1389108 4.7786551 4.765588v22.6345699c0 6.5840568-4.4271437 12.4672454-10.7685996 14.3078137l-6.09894 1.7707673c.6652513 1.0451264 1.7590953 1.7938825 3.033381 1.9981089l9.6191885-.0009204c.1355238 0 .2665103.0196692.3902242.056308l7.1345037.0001348.0031951-.1950779c.1167369-4.6495107 3.0007094-8.6259577 7.0687277-10.3503798zm-15.1604129 24.8056472h-12.7747481v38.097869l6.0184454-1.7474349c5.1776681-1.5027624 8.7941188-6.3078137 8.7941188-11.6842936l-.0004032-18.2117877-4.9619245.0002644v5.8342541h.3040098c.7568579 0 1.3712112.6108919 1.3712112 1.3654302 0 .7561168-.6143533 1.3654301-1.3712112 1.3654301h-1.6736376c-.7568579 0-1.3712112-.6093133-1.3712112-1.3654301v-8.566693c0-.7545383.6143533-1.3670087 1.3712112-1.3670087l6.3315523-.000247.0004032-1.6887822c0-1.1207577-.9136129-2.0315706-2.0378161-2.0315706zm40.4111454-5.2470403h-4.6931524v42.7434886h4.7137364zm-18.766276-19.558011-3.7434565-.0005959.0006945 56.2789588c.5811828-.0897296 1.1764968-.136295 1.7825317-.136295 1.4400598 0 2.8502012.2649083 4.1672194.7704599l.0002492-54.7120542c0-1.2138911-.9896154-2.2004736-2.2072383-2.2004736zm-28.8033518 10.8618784c.7568579 0 1.3712112.6108919 1.3712112 1.3670087v4.5824783c0 .7561168-.6143533 1.3670087-1.3712112 1.3670087s-1.3712112-.6108919-1.3712112-1.3670087v-4.5824783c0-.7561168.6143533-1.3670087 1.3712112-1.3670087zm5.5386798-4.3330702c.7568579 0 1.3712112.6093133 1.3712112 1.3654302v8.917127c0 .7561168-.6143533 1.3670087-1.3712112 1.3670087s-1.3712112-.6108919-1.3712112-1.3670087v-8.917127c0-.7561169.6143533-1.3654302 1.3712112-1.3654302zm5.5386798-2.8918706c.7568579 0 1.3712112.6124704 1.3712112 1.3670087v11.8074191c0 .7561168-.6143533 1.3670087-1.3712112 1.3670087s-1.3712112-.6108919-1.3712112-1.3670087v-11.8074191c0-.7545383.6143533-1.3670087 1.3712112-1.3670087zm5.5386798 0c.756858 0 1.3712112.6124704 1.3712112 1.3670087v11.8074191c0 .7561168-.6143532 1.3670087-1.3712112 1.3670087-.7568579 0-1.3696278-.6108919-1.3696278-1.3670087v-11.8074191c0-.7545383.6127699-1.3670087 1.3696278-1.3670087z" fill="#0daf4b"/></g></svg>