<svg height="110" viewBox="0 0 110 110" width="110" xmlns="http://www.w3.org/2000/svg"><g fill="none" fill-rule="evenodd"><path d="m0 0h110v110h-110z" fill="#fafafa" opacity="0"/><path d="m30.7612566 21c2.2395457 0 4.0615282 1.6900035 4.0615282 3.7673232l-.0007848 46.3796768 12.1841587.0004926c2.9188697 0 5.3004868 2.4761897 5.3597975 5.5438454.0912823.1314776.1598283.2837868.1981476.4518083l2.1608962 9.4808537 1.229978.0014137c-.4391501-.7319885-.6918261-1.5881509-.6918261-2.5022574v-45.9702064c0-.4337759.0714304-.8838496.2155443-1.3740413.1365949-.4601033.5601646-.7772862 1.0401266-.7772862l1.0751772-.0006224v-3.174l-.2330506.0002861c-1.3709621 0-2.4875317-1.1170354-2.4875317-2.4885693v-4.3427728c0-1.371534 1.1165696-2.4885694 2.4875317-2.4885694h15.725962c1.3722152 0 2.4875316 1.1170354 2.4875316 2.4885694v4.3427728c0 1.3715339-1.1153164 2.4885693-2.4875316 2.4885693l-.2319114-.0002861v3.174l1.0752911.0006224c.1416076 0 .2819621.0288348.4135443.0827434 14.0442152 5.7870206 23.1183798 19.3431416 23.1183798 34.5315634v13.5072271c0 .9141065-.2525313 1.7702689-.6914902 2.5022574l6.828876-.0011512c.773862 0 1.400399.485177 1.400399 1.0856933 0 .5980088-.626537 1.0844395-1.400399 1.0844395l-9.6124078.0011022c-.4431296.1330148-.9126218.2045025-1.398535.2045025h-32.4506962c-.4860263 0-.955665-.071521-1.3989527-.2045955l-41.3100564-.0010092c-.2045094 0-.3987727-.0338303-.5739708-.0946156l-9.63155567-.0006647c-.3740665 0-.72774124-.1785427-.95988107-.4846161-.2319767-.3060733-.31696957-.7058391-.23034536-1.0855401l2.27604703-9.9856425c.0385071-.168887.1075776-.321866.19964427-.4540889l-.00256219.119342c0-3.1215538 2.40496799-5.6610768 5.36092989-5.6610768l12.182741-.0004926.0006329-46.3796768c0-2.0773197 1.8219825-3.7673232 4.0617032-3.7673232zm42.9522371 17.1730088h-16.281114l-.0003797 6.4309912 9.5870886.0004248c2.6993165 0 4.8961139 2.1977138 4.8961139 4.89941v26.2572271c0 2.7016962-2.1967974 4.8994101-4.8961139 4.8994101l-9.5870886-.000472.0003797 3.4631563c0 1.1275134.6924259 2.0956094 1.6736584 2.50212l34.5137183.000264c.9812201-.4063554 1.6732309-1.3746265 1.6732309-2.502384v-13.5072271c0-14.2356195-8.4626202-26.9467552-21.5794936-32.4429204zm-60.7634937 41.7499912h-2.76l-1.41826778 6.2255039h43.32988638l-1.4196186-6.2255039h-2.76l.6667109 3.5723056c.1263067.6766034-.3943327 1.3149741-1.1625106 1.4261965-.0772501.0110892-.1543123.016551-.2302467.016551-.6779589 0-1.2758483-.4319802-1.389186-1.0403936l-.7417676-3.9746595h-2.942l.2163617 3.6922479c.0399522.6840783-.4214882 1.2751365-1.0307959 1.3201569-.0247674.0016552-.04924.0026483-.0735651.0026483-.5776114 0-1.0638192-.5036657-1.1022971-1.1601028l-.2267036-3.8549503h-2.577l.0001139 3.7736693c0 .6855749-.5610835 1.2413838-1.2531645 1.2413838s-1.2531646-.5558089-1.2531646-1.2413838l-.0007848-3.7736693h-2.506l.0004557 3.7736693c0 .6855749-.5610835 1.2413838-1.2531646 1.2413838-.692081 0-1.2531645-.5558089-1.2531645-1.2413838l-.0001266-3.7736693h-3.76l.0006329 3.7736693c0 .6855749-.5610835 1.2413838-1.2531645 1.2413838-.6922481 0-1.2531646-.5558089-1.2531646-1.2413838l-.0003038-3.7736693h-2.578l-.2252859 3.8549561c-.0384779.6564338-.5246857 1.160097-1.102297 1.160097-.0243252 0-.0487977-.0008276-.0735651-.0026482-.6093078-.0450202-1.0707482-.6360755-1.030796-1.3201504l.214944-3.6922545h-2.942l-.7402793 3.9746428c-.1135228.6084232-.7113969 1.0404103-1.3893385 1.0404103-.0759325 0-.1528047-.0054619-.2302408-.0165512-.7681584-.1112243-1.2885965-.7496052-1.1624809-1.4262195zm78.0935063.7725752c.5990127 0 1.0839874.4864307 1.0839874 1.0856932 0 .5992626-.4849747 1.0856933-1.0839874 1.0856933h-9.9739367c-.5990126 0-1.0839873-.4864307-1.0839873-1.0856933 0-.5992625.4849747-1.0856932 1.0839873-1.0856932zm0-4.3477876c.5990127 0 1.0839874.485177 1.0839874 1.0844395 0 .5992626-.4849747 1.0856933-1.0839874 1.0856933h-9.9739367c-.5990126 0-1.0839873-.4864307-1.0839873-1.0856933 0-.5992625.4849747-1.0844395 1.0839873-1.0844395zm-24.0244177-29.5732301h-9.5867089v31.714528h9.5867089c1.5037975 0 2.7268861-1.2235988 2.7268861-2.7280236v-26.2572271c0-1.5056785-1.2230886-2.7292773-2.7268861-2.7292773zm-20.0129299 26.9301884h-33.1388997c-1.6206937 0-2.9393336 1.3923391-2.9393336 3.1038235v.5574812h39.0175669v-.5574812c0-1.7114844-1.3186399-3.1038235-2.9393336-3.1038235zm44.0373476-1.7072533c.5990127 0 1.0839874.4864307 1.0839874 1.0856932 0 .5992626-.4849747 1.0844396-1.0839874 1.0844396h-8.1568481c-.5990126 0-1.0839873-.485177-1.0839873-1.0844396 0-.5992625.4849747-1.0856932 1.0839873-1.0856932zm-60.2822497-48.5625629h-.6489205c-.79225 0-1.4366203.597694-1.4366203 1.3323935l-.0007158 46.3796768h3.522l.0007019-46.3796768c0-.7346995-.6443703-1.3323935-1.4364453-1.3323935zm46.4999459 22.3354243c6.8122026 2.8070059 11.6932785 9.0754425 12.7384178 16.3581121.0451139.3109144-.0476203.6268436-.2531393.8650442-.2067721.2382006-.5062785.3748525-.8208228.3748525h-1.2268481c-6.5816202 0-11.9363924-5.3570059-11.9363924-11.9413716v-4.6536874c0-.3623156.1804557-.7008112.4824684-.9014011.2995063-.2018437.6817215-.240708 1.0163164-.1015487zm.6716962 2.7029498v2.9536874c0 5.3657817 4.3447216 9.7336283 9.6982405 9.7699852-1.1679493-5.4560472-4.752-10.1485988-9.6982405-12.7236726zm-7.2483038-15.6460177h-10.9213291v3.1743363h10.9213291zm-12.1364324-7.1493917-1.1872131.0008667c-.1741899 0-.3170507.1429203-.3170507.3171829v4.3427728c0 .1755162.1428608.3171829.3170507.3171829l1.1871233-.000125c-.009359-.1034668-.0141613-.2092587-.0141613-.3170579v-4.3427728c0-.1081436.004833-.2142671.0142511-.3180496zm3.6485498.0017485-1.4497123-.0008818c-.022557.0739675-.0438608.1805309-.0438608.3171829v4.3427728c0 .1353982.0213038.2432154.0438608.3171829l1.4496998-.0013188c-.0015565-.0541927-.0024301-.1053911-.0029205-.152915v-4.6686711c.0004917-.0476516.0013687-.0989975.002933-.1533519zm10.8901991-.0008818-1.18596-.0008667c.0094181.1037825.0142511.209906.0142511.3180496v4.3427728c0 .1077992-.0048023.2135911-.0141612.3170579l1.1858701.000125c.175443 0 .3183038-.1416667.3183038-.3171829v-4.3427728c0-.1742626-.1428608-.3171829-.3183038-.3171829zm-7.0102025 0h-1.7043038c-.0062659.0952802-.0100254.2005899-.0100254.3171829v4.3427728c0 .1165929.0037595.2219027.0100254.3171829h1.7043038c.0062658-.0952802.0100253-.20059.0100253-.3171829v-4.3427728c0-.116593-.0037595-.2219027-.0100253-.3171829zm3.6241519 0-1.4484592.0008818c.0015643.0543544.0024413.1057003.002933.1533519v4.6686711c-.0004904.0475239-.001364.0987223-.0029204.152915l1.4484466.0013188c.0238101-.0739675.0451139-.1817847.0451139-.3171829v-4.3427728c0-.136652-.0213038-.2419617-.0451139-.3171829z" fill="#0daf4b"/></g></svg>