<svg height="110" viewBox="0 0 110 110" width="110" xmlns="http://www.w3.org/2000/svg"><g fill="none" fill-rule="evenodd"><path d="m0 0h110v110h-110z" fill="#fafafa" opacity="0"/><path d="m41.5228356 19.2088182c.1685547.8209883-.3599345 1.6209704-1.1816386 1.7890192l-12.876876 2.6380156c-.7953675.1645477-1.4766093.6249313-1.9243327 1.2988769-.4300869.6516348-.5891026 1.425374-.4534248 2.1909007.4436343.1904191.7890462.5842599.8931613 1.0888946l9.7284834 46.9720445c.1645596.7934883.6299272 1.4763797 1.3129383 1.9222779.6812415.4458983 1.4987314.6038937 2.2985267.4388762l10.4043268-2.1217238-12.3986814-31.8265995c-.9745975-2.5070793.3148428-5.3258122 2.8760355-6.2798182.5546077-.207101 1.1243312-.310139 1.6865121-.3189616l-.5587502-1.4176968c-.9844987-2.5002423.3151108-5.3112881 2.8929662-6.2644192.6791351-.2512755 1.3807895-.3488213 2.0638949-.3104178l-.9545164-2.425163c-.4769527-1.2104073-.4377998-2.5295959.1085602-3.714103.54636-1.1827803 1.5340792-2.0892908 2.7834105-2.5503162 2.5751887-.953131 5.4742781.3056236 6.4566583 2.8058658l.8940788 2.2741572c.4692341-.4642079 1.0322654-.8300903 1.6643449-1.0733484 1.2116329-.4663013 2.5302761-.4313724 3.7125674.1065333 1.1822914.5344127 2.0884271 1.5054373 2.5492618 2.7314431l7.413053 19.6684859c.8043033-1.9403026 1.9313636-4.6560277 3.3414833-8.0615993.5678451-1.3727073 1.6931793-2.4258148 3.0894913-2.8886233 1.4014899-.4645549 2.9272498-.2916566 4.1923878.4750336 1.9693349 1.1945697 2.8996343 3.5872021 2.2662023 5.8209078l-6.5759563 23.1229581c-.2364583.8295623-.2002128 1.7324754.1052844 2.5410803l.6037116 1.6026012 6.9207471-1.4151703c.3508423-.0697989.7146431-.0121272 1.022267.1650798l1.6339748-.3345315c.7984608-.1622426 1.4823522-.6260448 1.9318169-1.3067584.4477021-.6807136.6028115-1.4936902.4406516-2.2925587l-3.7843165-18.4251177c-.1709728-.8270847.3613344-1.6330072 1.1862343-1.8040674.8248999-.1675331 1.6321738.3632824 1.801384 1.190367l3.7843166 18.4251178c.3278448 1.5959735.0158634 3.2254537-.8813034 4.5851173-.8971668 1.3614272-2.2702374 2.2925587-3.8653964 2.620571l-1.1670808.2401247c.3539636 2.9629417-1.6349523 5.7621323-4.6271143 6.3736566l-1.2741809.2601698.584 1.55.2544171-.099063c.6487954-.2540634 1.354533-.23452 1.9895242.05863.6332657.29315 1.1198623.8225968 1.3666116 1.4906235l2.5762009 6.9538743c.2467494.6680267.2260431 1.3964602-.0569421 2.0484969-.2847108.6538134-.7989156 1.1530568-1.447711 1.4071202l-27.221799 10.6884281c-.3002404.119037-.614285.17589-.926604.17589-.3623592 0-.7229928-.078173-1.0629202-.23452-.6349912-.29315-1.1198623-.822597-1.3666116-1.490624l-2.5762009-6.9538738c-.5090283-1.3786935.1639244-2.9297237 1.5029276-3.4556171l.4431074-.1743651-2.114-5.61-18.6049606 3.7943592c-.4140534.0842642-.8263372.1246408-1.2333127.1246408-2.8452894 0-5.4021571-1.981965-5.9949257-4.8522155l-10.0416776-48.4800233c-.3291193-1.5887319-.0141556-3.2108185.8864988-4.5660682.898885-1.3552498 2.2772932-2.2786454 3.8786532-2.6069248l.1696324-.0355539c-.4536556-3.1437733 1.630459-6.1446685 4.7914024-6.7904724l12.8751203-2.6380156c.8217041-.1662982 1.6258504.3588542 1.7944051 1.1780919zm41.075868 62.9848992-.9854412.3875333c-.0855732.0555767-.1770783.1025825-.2732653.1398765l-4.9169971 1.8958728-20.3231026 7.9791021 2.3001178 6.2112275 26.4988062-10.4041614zm-33.2772131-59.0814337c-.9894989.3660576-1.4878077 1.4452368-1.1105168 2.4070012l9.2169331 23.453585c.0734116.186863.1055387.3792159.100729.5676106l1.3701319 3.4871588c.3026487.7701022-.0961355 1.6334455-.8919238 1.928709-.7922277.2935367-1.6841514-.0932411-1.9885805-.8650701l-8.2178044-20.901542c-.3774209-.9600378-1.4901002-1.44351-2.4799397-1.0774525-.4806775.1761221-.8598786.5249128-1.0699525.9790314-.2100738.4541186-.2243161.9617644-.0427269 1.4262432l1.741716 4.4270856c.272604.3551767.4994622.7530227.6689302 1.188477l6.2809359 16.1228751c.0784977.2015897.1095014.4096693.0983923.6123484l.4319119 1.1027988c.3026488.7718289-.0961355 1.6351722-.8901434 1.9304357-.1815893.0656141-.3667391.0984211-.5501087.0984211-.6213201 0-1.2052542-.3677843-1.4402521-.9634912l-7.2919763-18.5535722c-.5159431-.4582626-1.2706311-.6238879-1.9645547-.3636669-.4775704.178335-.8543205.5263481-1.0630365.9834399-.2087159.4553604-.2228662.9626631-.0424507 1.4301434l12.6361607 32.4344735.0361632.1038286c.4418816.1908921.7878681.5832954.8918498 1.0862089.0748516.3620241.012961.7206396-.1505484 1.0229759l1.3614412 3.6154924c.4962145.1686108.8933802.5842738 1.0062388 1.1301208.0786426.3811721.0063412.757829-.1761694 1.069176l2.0865096 5.5416665 10.3091507-3.9787956 10.668-4.188-4.3163356-11.4527898c-.5333256-1.4163685-.5989125-2.9986495-.1846791-4.4534398l6.5759563-23.1229581c.2606219-.9168847-.1225441-1.9001343-.9302993-2.3908859-.5298737-.3195998-1.140868-.3912042-1.7242468-.1956021-.5799269.1921092-1.0304058.6112564-1.2668641 1.1840911-3.0618756 7.3996958-4.7878484 11.5422681-4.7878484 11.5422681-.2381843.5693417-.7766878.9291098-1.4032159.9238704-.6109943-.0104786-1.1529498-.3964434-1.3704223-.9727709l-8.7403261-23.192816c-.1760493-.4697942-.5246958-.8435339-.9786266-1.0478682-.4522049-.2060807-.9613668-.2217988-1.4256535-.0419147-.4642867.179884-.8336449.5309199-1.0373096.9919819-.2036648.4593155-.2174726.9710245-.0396974 1.4408187l.1735684.4620153 6.4988025 16.5339555c.1133014.2890459.1282632.5909264.060869.8709986l.4450808 1.1832743c.2934154.7789154-.0932025 1.6521389-.8647123 1.9507813-.7697839.2986425-1.6344962-.0943081-1.9279116-.8749699l-5.1251284-13.5980398-4.6846436-11.9202638c-.3772909-.9617645-1.4895874-1.4452367-2.4808659-1.0774525zm-26.6564905 7.3277163-.1551835.0321045c-.7997953.1632619-1.4898841.6267152-1.9375572 1.3025846-.4512119.6776249-.6086937 1.4869127-.4441341 2.2821564l10.0399081 48.4782678c.3397361 1.6396415 1.9570212 2.6999665 3.6132345 2.3629095l18.1357322-3.6970228-1.021-2.71-11.6346065 2.3847139c-.410852.0840244-.8217041.1242861-1.2237772.1242861-2.8232911 0-5.3603904-1.9763235-5.9503318-4.8384041zm61.4099311 41.2452156-4.9139311 1.0097844.857 2.274 1.7265227-.3520756c.7632802-.1562195 1.420174-.5980015 1.849097-1.2463963.3356788-.5061248.5007027-1.0904404.4813114-1.6853125zm-10.5758177-63.6852156c.6064396 0 1.1579095.34613288 1.4043864.88418101l2.6367708 5.76088479 4.7841344 3.1271906c.4220252.2758782.675595.735104.675595 1.2286004 0 .4917828-.2535698.9510086-.675595 1.2286003l-4.7841344 3.1254771-2.6367708 5.7625983c-.2464769.5363346-.7979468.8824675-1.4043864.8824675-.6082128 0-1.1579095-.3461329-1.4043864-.8824675l-2.6367709-5.7625983-4.7823611-3.1254771c-.4237985-.2775917-.675595-.7368175-.675595-1.2286003 0-.4934964.2517965-.9527222.675595-1.2286004l4.7823611-3.1271906 2.6367709-5.76088479c.2464769-.53804813.7961736-.88418101 1.4043864-.88418101zm0 5.1508684-1.4114792 3.0843524c-.1170322.2553158-.3067663.472934-.5443771.6288652l-3.2680354 2.1367708 3.2680354 2.1350572c.2376108.1559312.4273449.3752629.5443771.6288652l1.4114792 3.0843524 1.4132524-3.0843524c.115259-.2536023.304993-.472934.5426039-.6288652l3.2680354-2.1350572-3.2680354-2.1367708c-.2376109-.1559312-.4273449-.3735494-.5426039-.6271517z" fill="#0daf4b"/></g></svg>