<svg height="110" viewBox="0 0 110 110" width="110" xmlns="http://www.w3.org/2000/svg"><g fill="none" fill-rule="evenodd"><path d="m0 0h110v110h-110z" fill="#fafafa" opacity="0"/><path d="m97.59375 8c.81075 0 1.46875.64125307 1.46875 1.43136846l-.0005 54.38063154 1.46925.0005c.81075 0 1.46875.658 1.46875 1.46875s-.658 1.46875-1.46875 1.46875h-1.46925v5.875h1.501945c.792702 0 1.436055.6588345 1.436055 1.4706128v26.4337742l-.000457.019724c.00627.245315-.051918.495457-.181903.725327-.190432.333624-.497222.563222-.842246.665452-.018388.004419-.037611.009867-.056992.014912-.02341.006632-.046166.011795-.069042.016411-.035352.007026-.071772.013097-.108623.017737-.010707.001281-.021724.002525-.032758.003643-.047851.004954-.095664.007407-.144034.007407h-74.9716401l-.1159881-.005663c-.0016664-.000134-.0033325-.000271-.0049982-.00041l.1209863.006073c-.0746073 0-.1478916-.005836-.2194411-.017086-.0149072-.002896-.0301802-.005474-.0454032-.008293-.0186871-.003188-.0371792-.007117-.0555378-.011406-.3817454-.086084-.7267143-.325137-.932913-.688777-.1269867-.224567-.1856565-.468483-.18265-.708344.0000435-.011682-.0001098-.024176-.0001098-.036707v-26.4337742c0-.8117783.6433526-1.4706128 1.4360549-1.4706128h1.5006951v-5.875h-7.344l.001 33.79983c0 .800494-.658 1.45017-1.46875 1.45017-.8127083 0-1.46875-.649676-1.46875-1.45017v-91.0996603c0-.80049367.6560417-1.4501697 1.46875-1.4501697.81075 0 1.46875.64967603 1.46875 1.4501697l-.001 54.3618303h7.344l.00075-54.38063154c0-.79011539.658-1.43136846 1.46875-1.43136846s1.46875.64125307 1.46875 1.43136846l-.00025 63.19363154h66.093v-5.875h-5.875l.001 1.5065454c0 .7898869-.658 1.4309546-1.46875 1.4309546s-1.46875-.6410677-1.46875-1.4309546v-58.82559077c0-.78988696.658-1.43095463 1.46875-1.43095463s1.46875.64106767 1.46875 1.43095463l-.001 54.38104537h5.875l.001-54.38063154c0-.79011539.658-1.43136846 1.46875-1.43136846zm-15.77275 83.873-13.035 7.185h26.069zm-37.486-.001-13.036 7.186h26.071zm18.008-9.927-15.064 8.304 15.064 8.305zm-35.315.387v15.835l14.362-7.918zm72.099.001-14.361 7.916 14.361 7.918zm-33.846.421v14.99l13.595-7.495zm-5.242-2.786h-31.409l15.705 8.658zm37.485 0h-31.408l15.705 8.658zm1.6038902-4.4017744h-72.0995304l-.0003598 1.4647744h72.099zm-47.1009191-46.0347431c.1706697.6724363-.2899548 1.3448726-1.0295233 1.5017188l-3.3054478.6987987 1.0865205 4.2118458c1.4067207.2110269 2.623568 1.2928858 2.9737174 2.8002346l2.5057634 10.6170433c.080289.3358473.2670075.6367509.5265464.8522367l1.2281881.9833225c.2137658-3.4535823 3.0916173-6.1966829 6.5976493-6.1966829 3.6446011 0 6.6083649 2.9642168 6.6083649 6.609375 0 1.6324942-.5944483 3.1284105-1.578277 4.2826497l.5560728.2431385c2.1443907.9364906 3.6411598 2.9081479 3.9052955 5.1404587.0019565.0242035.0039131.0502688.0058697.0744724l.5145755 8.3278782c.048914.7689277-.5693593 1.4298704-1.3774189 1.4764157l-.0880452.0018618c-.770885 0-1.4185066-.5734376-1.4635075-1.3144382l-.512619-8.2887802c-.160438-1.2511366-1.0037157-2.3533284-2.2109137-2.8802208l-2.018167-.8822346c-.7280189.2766533-1.5172235.4281738-2.3412301.4281738-1.5782901 0-3.0292808-.5558833-4.167247-1.4822247-.1321643-.0521698-.2589451-.1257158-.3756442-.2216614l-5.0194291-4.0165776c-.7468743-.6153964-1.2827566-1.4812222-1.5086861-2.4421723l-2.5094978-10.6228673c-.0970936-.4251477-.5041402-.6891663-.9074523-.5979246-.2016561.0465916-.3734372.1708356-.4836011.3533191-.110164.1805421-.1437733.3940866-.0970937.6037485l2.6476695 11.8711318c.0541484.2446055.1661796.4756218.3230232.6658705l7.5751729 9.1455278c.2184608.2640186.3398278.6018071.3398278.9493022v7.2760429c0 .8037038-.6273744 1.4559851-1.4003893 1.4559851-.7748822 0-1.4003894-.6522813-1.4003894-1.4559851v-6.7344164l-7.2353451-8.7359106c-.451859-.5455091-.7748822-1.2055557-.9317258-1.9063698l-2.6476695-11.8730732c-.2165935-.9745393-.0522812-1.9743157.4593277-2.8187871.2120675-.3487698.472864-.6528365.7719979-.9046783l-1.1352337-4.4070295-2.9064942.6153785c-.104604.0216915-.209208.0333715-.313812.0333715-.6257887 0-1.1910172-.3904469-1.3396649-.9694429-.1706697-.6724363.2899548-1.3448727 1.0295233-1.5017189l8.995942-1.9021771c.7414037-.1568462 1.4809721.2619665 1.6534769.9360714zm-39.4723936 34.2810175c.7288732 0 1.3204225.658 1.3204225 1.46875s-.5915493 1.46875-1.3204225 1.46875h-3.23415496c-.73063381 0-1.32042254-.658-1.32042254-1.46875s.58978873-1.46875 1.32042254-1.46875zm39.5264304 0c.8005336 0 1.4502421.658 1.4502421 1.46875s-.6497085 1.46875-1.4502421 1.46875h-17.6620158c-.8005336 0-1.4502421-.658-1.4502421-1.46875s.6497085-1.46875 1.4502421-1.46875zm32.2436449 0c.8385416 0 1.5190972.658 1.5190972 1.46875s-.6805556 1.46875-1.5190972 1.46875h-7.2430556c-.8385416 0-1.5190972-.658-1.5190972-1.46875s.6805556-1.46875 1.5190972-1.46875zm-21.7142677-15.7816035c-1.9738222 0-3.5799518 1.6043546-3.5799518 3.5784785s1.6061296 3.5784785 3.5799518 3.5784785c1.9738223 0 3.5779316-1.6043546 3.5779316-3.5784785s-1.6041093-3.5784785-3.5779316-3.5784785zm-22.7453944-27.2065069 1.8603834 7.2419199c.205389.8021819-.1731379 1.6509552-.8453202 1.898092-.1239124.0445657-.2495222.0668485-.3734346.0668485-.5448751 0-1.0490118-.4213481-1.21536-1.075653l-1.8603834-7.2398942c-.205389-.8021819.1731379-1.6529809.8453202-1.898092.6721823-.2471369 1.3834055.2045969 1.5887946 1.0067788zm7.7179941-4.5035973 2.9442856 8.9743808c.24031.7309031-.1914665 1.508066-.9631937 1.7356637-.1445767.0425589-.2911072.0629132-.4356839.0629132-.6251967 0-1.2035036-.3811799-1.3988776-.9751544l-2.9442856-8.9743808c-.24031-.7309031.1914665-1.5099164.9631937-1.7375141.7736808-.2275977 1.5942515.181338 1.8345615.9140916zm-1.6356453-4.5218221.1869496.5683427c.2089437.6299133-.216275 1.2835075-.9457449 1.4634827-.1246331.0299958-.2529318.0442044-.375732.0442044-.5993384 0-1.1510229-.3394269-1.3214769-.8604078l-.1887825-.5683428c-.2071108-.6299132.216275-1.2850861.9475778-1.4634826.7276371-.1783965 1.4900981.1862901 1.6972089.8162034z" fill="#0daf4b"/></g></svg>