<svg height="31" viewBox="0 0 30 31" width="30" xmlns="http://www.w3.org/2000/svg"><path d="m256.625 3642.125c4.03125 0 7.476562-1.42969 10.335938-4.28906 2.859374-2.85938 4.289062-6.30469 4.289062-10.33594s-1.429688-7.47656-4.289062-10.33594c-2.859376-2.85937-6.304688-4.28906-10.335938-4.28906s-7.476562 1.42969-10.335938 4.28906c-2.859374 2.85938-4.289062 6.30469-4.289062 10.33594s1.429688 7.47656 4.289062 10.33594c2.859376 2.85937 6.304688 4.28906 10.335938 4.28906zm-2.882812-9.14062c-.234376 0-.445313-.09376-.632813-.28126l-3.9375-3.9375 1.265625-1.26562 3.304688 3.30469 8.789062-8.85938 1.265625 1.26563-9.421875 9.49218c-.1875.1875-.398438.28126-.632812.28126z" fill="#0daf4b" transform="translate(-242 -3612)"/></svg>