<svg height="140" viewBox="0 0 181 140" width="181" xmlns="http://www.w3.org/2000/svg"><g fill="#fff" transform="translate(0 .5)"><path d="m13.158865 17.0383721 8.097763.0843484-6.4950808 4.723509 2.4461993 7.7600507-6.5794325-4.7235091-6.57943248 4.6391607 2.44619926-7.6757023-6.49508078-4.8078574h8.09776305l2.53055095-7.6757023z"/><path d="m33.3189209 22.3523198h5.2298053l-4.2175849 3.1208899 1.5183305 5.0609026-4.2175849-3.1208899-4.3019366 3.0365416 1.6026823-4.9765543-4.217585-3.1208899h5.314157l1.6026823-4.9765542z"/><path d="m22.5219035 42.0898399h3.1210128l-2.5305509 1.8556643.9278687 3.0365416-2.530551-1.8556643-2.530551 1.7713159 1.0122204-2.9521932-2.5305509-1.8556643h3.1210128l1.0122204-2.9521931z"/><g transform="translate(5.061102)"><path d="m123.406535 103.9172h19.738297l-3.711475-11.2183341c-6.663784-1.0121805-13.580623-1.8556643-20.666166-2.3617545z"/><path d="m108.307581 58.7064701 7.760356 23.280152h-.843517c7.760356 1.0965289 15.183306 2.4461029 22.100145 4.1330704l-18.557374-55.9229737h-10.712665l-5.651564 16.7009786c-1.180924-1.6869675-2.6992545-3.2895867-4.6393435-4.8922058l-28.4265224-24.2923325.2530551.1686967c-1.3496272-1.6869675-2.0244408-2.9521931-2.0244408-4.048722 0-1.9400127 1.1809238-3.5426319 3.4584197-4.72350913 2.2774958-1.26522564 5.314157-1.85566428 9.1943351-1.85566428 7.7603563 0 12.4840514 4.47046401 14.1710853 13.32704351l10.3752585-1.2652257c-1.855737-12.8209532-9.7004449-19.3157782-23.8715302-19.3157782h-1.5183306c-3.9645298 0-7.5073011.42174188-10.4596106 1.4339224-3.1210128.92783215-5.7359155 2.27740617-7.7603562 3.9643737-2.1087925 1.68696754-3.7958265 3.6269802-4.8923985 5.820038-1.0965721 2.1930578-1.687034 4.3861156-1.687034 6.7478701 0 2.4461029.5904619 4.8922059 1.7713856 7.2539604 1.1809238 2.4461029 3.1210129 4.7235091 5.5672121 6.9165669l28.3421707 24.2923325-.2530551-.1686968c1.4339789 1.6869675 2.1087925 3.1208899 2.1087925 4.470464 0 1.9400126-1.3496272 3.5426318-3.7958264 4.7235091-2.530551 1.2652256-5.8202672 1.8556642-9.8691488 1.8556642-9.1943351 0-14.5084921-4.4704639-16.1955261-13.3270435l-10.3752589 1.2652257c1.7713857 12.9053016 10.3752589 19.4001266 25.8116198 19.4001266 4.3019366 0 8.1821147-.5060903 11.6405343-1.5182708 1.687034-.5060902 3.2053646-1.0121805 4.5549917-1.6869675l-2.8679577 8.3504893c3.2897162.1686967 6.4950808.3373935 9.7847974.674787z"/><path d="m83.0864229 103.9172h9.9535005l4.8080468-14.2548757c-3.374068 0-6.7481359.0843484-10.0378521.2530452z"/><path d="m172.83663 100.458917c-2.530551-1.7713164-5.567212-3.5426323-8.94128-5.1452514-7.338598-3.5426318-16.448581-6.6635218-26.655137-9.1096247-6.916839-1.6869675-14.339788-3.0365416-22.100145-4.1330704-4.639343-.6747871-9.363038-1.1808773-14.171085-1.6026192-3.2053645-.2530451-6.4950808-.5060903-9.784797-.674787-4.3019366-.1686968-8.6038732-.3373935-12.9058099-.3373935-15.2676574 0-29.8605012 1.349574-42.1758492 3.8800253-21.5940348 4.470464-34.58419633 12.2305146-35.76512011 21.2557909-.84351698 7.085264 5.7359155 14.423572 18.72607701 20.749701 3.374068 1.686967 7.2542461 3.205238 11.3874793 4.63916l.1687034-.253045c-7.3385977-5.145251-10.628314-10.712244-9.5317419-16.11054 1.7713857-8.519186 14.6771955-15.9418429 35.3433616-20.1592617 9.3630386-1.9400127 19.9913526-3.2052383 31.2944802-3.6269802 3.2897162-.1686968 6.6637841-.2530451 10.0378521-.2530451h.7591653c6.7481362 0 13.4962722.2530451 20.0757042.7591354 7.085543.5060902 14.002382 1.349574 20.666166 2.3617545 12.146645 1.8556643 23.534124 4.5548123 33.234569 8.0130961z"/><path d="m155.797587 71.2743782 7.254246.0843484-5.820267 4.2174189 2.108792 6.8322185-5.820267-4.2174189-5.820267 4.2174189 2.193144-6.8322185-5.735915-4.3017673h7.169894l2.277496-6.8322185z"/><path d="m170.053024 108.218967h4.47064l-3.627123 2.6148 1.349627 4.301767-3.627123-2.6148-3.627123 2.6148 1.349627-4.301767-3.542771-2.6148h4.47064l1.433979-4.301767z"/><g transform="translate(43.862883 107.122438)"><path d="m8.43516984 17.460114c-2.69925435 0-4.72369511-.8434838-6.15767398-2.5304513-1.34962718-1.6026192-2.02444076-3.5426319-2.02444076-5.82003803 0-2.27740616.67481358-4.13307045 1.94008906-5.73568961 1.43397887-1.7713159 3.37406794-2.61479967 5.98897059-2.61479967.16870339 0 .42175849 0 .75916528.08434838.3374068 0 .75916529.08434837 1.18092377.16869675.5061102.08434838.843517.08434838 1.0965721.08434838 0 0 .0843517-.08434838.1687034-.16869676.0843517-.08434837.2530551-.08434837.3374068-.16869675.1687034-.08434838.2530551-.08434838.3374068-.16869675.0843517 0 .1687034-.08434838.2530551-.08434838.5061102 0 .9278687.50609026 1.3496271 1.60261916.4217585.92783214.5904619 1.68696753.5904619 2.10870941 0 .16869675-.0843517.33739351-.2530551.42174188-.1687034.08434838-.4217585.16869676-.7591652.16869676-.4217585-.33739351-.7591653-.67478702-1.0965721-.92783215s-.6748136-.50609026-1.0122204-.67478701c-.4217585-.25304513-.843517-.42174188-1.26527548-.59043863-.4217585-.16869676-.92786869-.16869676-1.43397888-.16869676-1.34962717 0-2.44619925.75913539-3.12101284 2.27740617-.50611019 1.0965289-.75916529 2.44610292-.75916529 4.04872208 0 1.94001263.2530551 3.45828343.75916529 4.47046393.75916529 1.5182708 2.02444076 2.2774062 3.71147473 2.2774062.42175849 0 .84351699-.0843484 1.26527547-.1686968.4217585-.0843483.843517-.2530451 1.2652755-.5060902.7591653-.4217419 1.3496272-.7591354 1.687034-.9278322.4217584-.2530451.6748135-.3373935.7591652-.3373935.1687034 0 .3374068 0 .4217585.0843484s.1687034.1686968.2530551.2530451c.0843517.0843484.0843517.1686968.0843517.2530452v.3373935c0 .1686967-.0843517.3373935-.2530551.5060902-.0843517.1686968-.2530551.4217419-.5061102.5904387-.1687034.1686967-.4217585.3373935-.7591652.5060902-.3374068.1686968-.6748136.3373935-1.0965721.5060903-1.2652755.5060903-2.53055098.8434838-3.71147476.8434838z"/><path d="m21.4253314 15.3514045c0 .1686968.0843517.3373936.1687034.5060903.0843517.1686968.2530551.2530451.5904619.2530451h1.5183306.9278686.5061102.2530551c.2530551 0 .5904619-.0843483.9278687-.3373935.3374068-.2530451.6748136-.5060902 1.0122204-.8434837.2530551-.1686968.4217585-.2530452.6748136-.3373935.1687034 0 .2530551.1686967.2530551.4217418 0 .1686968-.1687034.5060903-.4217585 1.0965289-.0843517.1686968-.1687034.4217419-.2530551.5904387-.0843517.1686967-.1687034.3373935-.2530551.4217419-.0843517.0843483-.1687034.1686967-.3374068.2530451s-.3374068.0843484-.5061102.0843484h-9.2786868c-.3374068 0-.5061102-.1686968-.5061102-.5060903 0-.2530451.2530551-.4217419.6748136-.5060903.4217585-.1686967.6748136-.4217418.6748136-.7591353v-9.78441174c0-.42174188-.2530551-.67478701-.6748136-.75913539-.4217585-.16869675-.6748136-.3373935-.6748136-.50609026 0-.3373935.1687034-.50609026.5061102-.50609026h5.0611019c.3374068 0 .5061102.16869676.5061102.50609026 0 .25304513-.2530551.42174189-.6748136.50609026-.4217585.16869676-.6748136.42174189-.6748136.75913539z"/><path d="m34.415493 8.85657954c.3374068.08434838.5904618.16869676.9278686.16869676h.6748136.6748136c.4217585 0 .6748136.08434837.9278687.16869675s.3374068.33739351.3374068.67478701c0 .33739354-.1687034.50609024-.3374068.67478704-.2530551.0843484-.5904619.1686967-1.0122204.1686967-.3374068 0-.6748136 0-.9278687 0s-.4217585 0-.4217585 0c-.1687034 0-.3374068 0-.5904618.0843484-.2530551.0843484-.3374068.2530451-.3374068.5060903v4.2174188c0 .3373935.0843517.5060903.2530551.5904386.1687034.0843484.3374067.0843484.6748135.0843484h1.1809238 1.3496272c.3374068 0 .6748136-.0843484 1.0122204-.1686967.3374068-.0843484.5904619-.2530452.843517-.5060903s.5061102-.4217419.6748135-.5904386c.1687034-.1686968.3374068-.2530452.3374068-.2530452.1687034 0 .3374068 0 .4217585.0843484s.1687034.1686968.1687034.3373935c0 .0843484 0 .1686968-.0843517.4217419-.0843517.1686968-.1687034.3373935-.2530551.5904386-.0843517.2530452-.2530551.4217419-.3374068.674787-.1687034.1686968-.2530551.3373936-.3374068.5060903-.1687033.1686968-.253055.2530451-.5061101.2530451-.1687034.0843484-.3374068.0843484-.4217585.0843484h-9.1099835c-.1687034 0-.3374068-.0843484-.4217585-.1686967-.0843517-.0843484-.1687034-.2530452-.1687034-.4217419 0-.0843484.0843517-.1686968.2530551-.2530452.1687034-.0843483.2530551-.1686967.4217585-.1686967.1687034-.0843484.3374068-.1686968.4217585-.2530451.1687034-.0843484.2530551-.2530452.2530551-.5060903v-9.95310844c0-.16869675-.0843517-.3373935-.2530551-.42174188s-.2530551-.16869675-.4217585-.25304513-.3374068-.16869675-.4217585-.25304513c-.1687034-.08434838-.2530551-.16869675-.2530551-.33739351 0-.3373935.1687034-.50609026.5061102-.50609026h8.7725767c.2530551 0 .4217585.08434838.5904619.16869676.1687034.08434837.3374068.25304513.5061102.50609026.1687034.16869675.253055.42174188.3374067.67478701s.1687034.50609026.1687034.75913539c0 .08434838 0 .08434838-.0843517.16869675-.0843517.08434838-.0843517.16869676-.1687034.16869676-.0843516.08434837-.1687033.08434837-.253055.08434837s-.1687034 0-.2530551-.08434837c-.4217585-.25304513-.7591653-.50609026-1.0122204-.67478702-.2530551-.16869675-.5061102-.25304513-.7591653-.3373935-.2530551-.08434838-.5904619-.16869676-.9278687-.16869676s-.843517 0-1.5183306 0c-.5061102 0-.8435169.08434838-1.0122203.16869676-.1687034.16869675-.2530551.3373935-.2530551.50609026v1.51827078.84348376.33739351c.1687034 0 .1687034.08434837.1687034.08434837z"/><path d="m50.8640742 17.460114c-.4217585 0-.5904619-.1686968-.5904619-.5060903 0-.1686968.1687034-.3373935.4217585-.4217419.3374067-.0843484.5904618-.2530451.7591652-.4217419.1687034-.1686967.2530551-.3373935.1687034-.5060902l-.6748136-1.8556643c-.4217584-.0843484-.8435169-.0843484-1.2652754-.0843484-.5904619.1686968-1.0965721.1686968-1.6026823 0-.4217585-.0843484-.5904619-.3373935-.5904619-.5904386 0-.2530452.0843517-.4217419.3374068-.5060903s.5904619-.1686967 1.0122204-.1686967h.7591653c.2530551 0 .5061102-.0843484.5904619-.1686968 0-.1686967-.0843517-.4217419-.2530551-.8434838-.1687034-.4217418-.3374068-.8434837-.5061102-1.2652256-.1687034-.42174189-.3374068-.84348377-.5061102-1.18087728-.1687034-.3373935-.2530551-.59043863-.3374068-.75913539-.1687034.33739351-.4217585.84348377-.6748136 1.51827078-.2530551.67478699-.5904619 1.43392239-.9278687 2.36175459-.4217585 1.0121805-.6748136 1.8556642-.843517 2.5304513-.1687034.674787-.2530551 1.0965289-.2530551 1.2652256 0 .3373935.1687034.5904386.5904619.674787.4217585.1686968.5904619.3373935.5904619.5060903 0 .3373935-.1687034.5060902-.5904619.5060902h-3.4584196c-.1687034 0-.3374068-.0843483-.3374068-.1686967-.0843517-.0843484-.0843517-.2530451-.0843517-.4217419.4217585-.2530451.7591653-.5060903 1.0965721-.7591354s.5904619-.5060902.6748136-.7591354c.6748136-1.7713159 1.3496271-3.5426318 1.940089-5.2295993.5904619-1.77131594 1.2652755-3.54263185 1.9400891-5.31394776.0843517-.25304513.2530551-.42174188.5061102-.50609026.2530551-.08434837.5061102-.16869675.7591653-.16869675.3374068 0 .5904619.08434838.9278687.16869675.3374068.08434838.5061101.25304513.5904618.50609026.6748136 1.77131591 1.3496272 3.54263182 2.1087925 5.22959936.6748136 1.7713159 1.3496272 3.4582834 2.0244408 5.2295993.0843517.1686968.2530551.3373936.4217585.5060903.1687034.1686968.5061102.3373935.9278686.5904386.1687034.1686968.3374068.2530452.5061102.3373935.1687034.0843484.2530551.1686968.2530551.3373936 0 .3373935-.1687034.5060902-.5904619.5060902h-5.8202671z"/><path d="m70.6867233 5.90438636v2.02436104c0 .75913539 0 1.60261916.0843517 2.4461029v2.4461029 2.1930578c0 .6747871 0 1.1808773-.0843517 1.6026192 0 .4217419-.0843517.5904386-.1687034.674787s-.1687034.1686968-.3374068.1686968-.2530551.0843483-.4217585.0843483-.2530551 0-.4217585-.0843483c-.1687034 0-.2530551-.0843484-.3374068-.1686968-1.1809238-1.4339224-2.3618475-2.8678448-3.627123-4.470464-1.2652755-1.5182707-2.6149027-3.03654151-4.0488815-4.47046391v7.25396041c0 .3373935.2530551.5904386.6748135.674787.4217585.1686967.6748136.3373935.6748136.5904386 0 .3373935-.1687034.5060903-.5061102.5060903h-3.4584196c-.3374068 0-.5061102-.1686968-.5061102-.5060903 0-.1686967.2530551-.4217419.6748136-.5060902.4217585-.0843484.6748136-.3373935.6748136-.7591354v-9.70006334c0-.3373935-.2530551-.59043863-.6748136-.75913539-.4217585-.08434837-.6748136-.25304513-.6748136-.50609026 0-.3373935.1687034-.50609026.5061102-.50609026h2.9523094c.0843517 0 .3374068.16869676.6748136.42174189.3374068.3373935.6748136.67478701 1.0965721 1.18087727s.9278687 1.01218052 1.3496272 1.60261916c.5061102.59043863 1.0122204 1.18087727 1.5183306 1.7713159.5061102.59043864 1.0122203 1.09652893 1.4339788 1.60261913.4217585.5060903.843517.9278322 1.1809238 1.1808773 0 0 0-.0843484 0-.1686967 0-.0843484 0-.3373936 0-.6747871s0-.9278321 0-1.77131587c0-.75913539 0-1.94001266 0-3.37393507 0-.3373935-.2530551-.59043863-.843517-.75913539-.2530551-.08434837-.4217585-.25304513-.4217585-.42174188 0-.33739351.1687034-.50609026.5061102-.50609026h3.374068c.3374068 0 .5904619.16869675.5904619.50609026 0 .25304513-.2530551.42174188-.6748136.50609026-.5061102.08434838-.7591653.33739351-.7591653.67478701z"/><path d="m74.3138463 17.460114c-.3374068 0-.5061102-.1686968-.5061102-.5060903 0-.2530451.2530551-.4217419.6748136-.5060903.4217585-.1686967.6748136-.4217418.6748136-.7591353v-9.78441174c0-.3373935-.2530551-.59043863-.6748136-.75913539-.4217585-.08434837-.6748136-.25304513-.6748136-.50609026 0-.3373935.1687034-.50609026.5061102-.50609026h5.0611019c.3374068 0 .5061102.16869676.5061102.50609026 0 .25304513-.2530551.42174189-.6748136.50609026-.4217585.16869676-.6748136.42174189-.6748136.75913539v9.78441174c0 .3373935.2530551.5904386.6748136.7591353.4217585.1686968.6748136.3373935.6748136.5060903 0 .3373935-.1687034.5060903-.5061102.5060903z"/><path d="m93.8834403 5.90438636v2.02436104c0 .75913539 0 1.60261916.0843517 2.4461029v2.4461029 2.1930578c0 .6747871 0 1.1808773-.0843517 1.6026192 0 .4217419-.0843517.5904386-.1687033.674787-.0843517.0843484-.1687034.1686968-.3374068.1686968s-.2530551.0843483-.4217585.0843483-.2530551 0-.4217585-.0843483c-.1687034 0-.2530551-.0843484-.3374068-.1686968-1.1809238-1.4339224-2.3618476-2.8678448-3.6271231-4.470464-1.2652754-1.5182707-2.6149026-3.03654151-4.0488815-4.47046391v7.25396041c0 .3373935.2530551.5904386.6748136.674787.4217585.1686967.6748136.3373935.6748136.5904386 0 .3373935-.1687034.5060903-.5061102.5060903h-3.5427713c-.3374068 0-.5061102-.1686968-.5061102-.5060903 0-.1686967.2530551-.4217419.6748136-.5060902.4217585-.0843484.6748136-.3373935.6748136-.7591354v-9.70006334c0-.3373935-.2530551-.59043863-.6748136-.75913539-.4217585-.08434837-.6748136-.25304513-.6748136-.50609026 0-.3373935.1687034-.50609026.5061102-.50609026h2.9523094c.0843517 0 .3374068.16869676.6748136.42174189.3374068.3373935.6748136.67478701 1.0965721 1.18087727s.9278687 1.01218052 1.4339789 1.60261916c.5061101.59043863 1.0122203 1.18087727 1.5183305 1.7713159.5061102.59043864.9278687 1.09652893 1.4339789 1.60261913.4217585.5060903.843517.9278322 1.1809238 1.1808773 0 0 0-.0843484 0-.1686967 0-.0843484 0-.3373936 0-.6747871s0-.9278321 0-1.77131587c0-.75913539 0-1.94001266 0-3.37393507 0-.3373935-.2530551-.59043863-.843517-.75913539-.2530551-.08434837-.4217585-.25304513-.4217585-.42174188 0-.33739351.1687034-.50609026.5061102-.50609026h3.3740679c.3374068 0 .5904619.16869675.5904619.50609026 0 .25304513-.2530551.42174188-.6748136.50609026-.5904619.08434838-.7591653.33739351-.7591653.67478701z"/><path d="m108.898043 14.7609659s.084351.0843484.168703.0843484.168703.0843484.253055.0843484h.084352c0 .0843483.084352.1686967.084352.2530451s.084351.1686967.084351.2530451c0 .2530452-.253055.5904387-.674813.8434838-.421759.2530451-1.096572.5060902-1.855738.7591354-.590462.1686967-1.180923.2530451-1.771385.3373935s-1.180924.1686967-1.687034.1686967c-1.096572 0-2.024441-.1686967-2.867958-.5060902-.8435171-.3373935-1.5183307-.8434838-2.1087925-1.4339224-.5904619-.5904387-1.0122204-1.3495741-1.3496272-2.1087094-.3374068-.8434838-.5061102-1.6869676-.5061102-2.6991481 0-.84348376.1687034-1.68696753.5061102-2.53045129.3374068-.75913539.7591653-1.4339224 1.3496272-2.02436104.5904618-.59043864 1.2652754-1.0965289 2.1087925-1.4339224.843517-.33739351 1.687034-.59043864 2.614903-.59043864h.927868c.337407 0 .590462.08434838.927869.08434838.253055.08434837.50611.08434837.759165.08434837.168704 0 .337407 0 .421759-.08434837.084351-.08434838.168703-.08434838.337407-.16869676.168703-.08434837.337406-.16869675.50611-.16869675.168703 0 .337406.08434838.50611.33739351.168703.25304513.337407.59043863.50611 1.01218052.168703.42174188.337407.75913539.421759.92783214.084351.25304513.084351.42174188.084351.50609026s-.084351.16869675-.168703.25304513-.168704.16869675-.253055.25304513c-.084352.08434838-.253055.08434838-.337407.08434838s-.168703-.08434838-.253055-.16869676c-.084352-.08434837-.168704-.16869675-.253055-.25304513-.084352-.08434837-.168704-.08434837-.168704-.16869675-.084351 0-.168703-.08434838-.168703-.16869675-.084352-.08434838-.168703-.08434838-.253055-.25304513-.337407-.33739351-.759165-.59043864-1.349627-.75913539-.50611-.16869676-1.012221-.25304513-1.602683-.25304513-.674813 0-1.180923.16869675-1.687034.50609026-.421758.3373935-.843516.84348376-1.096572 1.34957402-.253055.50609026-.50611 1.0965289-.590461 1.77131591-.168704.67478701-.168704 1.26522568-.168704 1.77131588 0 .674787.084352 1.3495741.253055 1.9400127.168704.5904386.337407 1.1808773.674814 1.6026191.337407.5060903.759165.8434838 1.265275 1.0965289.50611.2530452 1.180924.4217419 1.940089.4217419h.506111c.168703 0 .337406 0 .421758-.0843483.084352-.0843484.253055-.1686968.337407-.2530452s.168703-.2530451.168703-.4217419v-2.1930578c0-.3373935-.168703-.5904386-.590462-.7591353-.590462-.1686968-.843517-.3373935-.843517-.5904387 0-.1686967.084352-.3373935.253055-.4217419.168704-.0843483.421759-.0843483.674814-.0843483h3.795826c.253056 0 .506111 0 .674814.0843483.168703.0843484.253055.1686968.253055.4217419 0 .1686968-.253055.4217419-.759165.5904387-.168704.0843483-.253055.1686967-.337407.3373935-.084352.1686967-.168703.2530451-.168703.4217418z"/></g><g transform="translate(91.943351 128.209532)"><path d="m.67481359 4.97655422.92786868-.08434838v.25304513c0 .25304513.0843517.50609026.1687034.67478702.16870339.16869675.33740679.3373935.59046189.50609026.25305509.08434837.67481358.16869675 1.01222038.16869675.59046189 0 1.01222038-.08434838 1.26527547-.33739351.3374068-.25304513.4217585-.50609026.4217585-.75913539 0-.16869675-.0843517-.42174188-.2530551-.59043863-.1687034-.16869676-.59046189-.42174189-1.34962717-.67478702-.59046189-.25304513-.92786869-.42174188-1.18092378-.50609026-.3374068-.16869675-.59046189-.42174188-.67481359-.59043863-.1687034-.25304513-.2530551-.50609026-.2530551-.75913539 0-.33739351.0843517-.59043864.3374068-.92783214.1687034-.25304513.50611019-.50609026.84351698-.59043864.42175849-.16869675.84351699-.16869675 1.34962718-.16869675.59046189 0 1.09657208.08434837 1.43397887.25304513.42175849.16869675.67481359.42174188.84351699.67478701.16870339.25304513.25305509.59043864.25305509.84348377v.16869675l-.92786868.08434838c0-.16869676 0-.33739351-.0843517-.42174189-.0843517-.16869675-.1687034-.3373935-.33740679-.42174188-.1687034-.08434838-.3374068-.25304513-.59046189-.33739351-.2530551-.08434837-.50611019-.08434837-.75916529-.08434837-.50611019 0-.92786868.08434837-1.18092378.3373935-.25305509.16869676-.33740679.33739351-.33740679.67478702 0 .16869675.0843517.3373935.1687034.42174188.08435169.08434838.25305509.25304513.50611019.3373935.16870339.08434838.59046189.25304513 1.18092377.50609026.50611019.16869676.84351699.33739351 1.09657208.50609026.2530551.16869676.4217585.33739351.59046189.59043864.1687034.25304513.1687034.50609026.1687034.75913539 0 .33739351-.0843517.67478701-.33740679.92783214-.2530551.25304513-.59046189.50609026-1.01222039.67478702-.42175849.16869675-.92786868.25304513-1.43397887.25304513-.84351698 0-1.43397887-.16869676-1.94008906-.50609026-.1687034-.42174189-.42175849-1.01218052-.50611019-1.85566429z"/><path d="m11.0500725 5.48264448.843517.08434838c-.0843517.42174188-.4217585.75913539-.843517 1.09652889-.4217585.33739351-.9278687.50609026-1.60268228.50609026-.42175849 0-.75916528-.08434837-1.01222038-.25304513-.33740679-.16869675-.59046189-.42174188-.75916528-.67478701-.1687034-.33739351-.2530551-.67478701-.2530551-1.01218052 0-.50609026.1687034-1.01218052.42175849-1.4339224.2530551-.50609026.59046189-.84348377 1.01222038-1.0965289.4217585-.25304513.84351699-.3373935 1.34962717-.3373935.5904619 0 1.0965721.16869675 1.5183306.50609026.3374068.3373935.5904619.84348376.5904619 1.4339224 0 .25304513 0 .42174188-.0843517.67478701h-3.79582646v.25304513c0 .42174188.0843517.75913539.3374068 1.01218052.25305509.25304513.50611019.33739351.84351698.33739351s.59046188-.08434838.92786868-.25304513c.0843517-.25304513.3374068-.50609026.5061102-.84348377zm-2.61490266-1.18087727h2.86795776c0-.08434838 0-.16869676 0-.16869676 0-.42174188-.0843517-.67478701-.3374068-.92783214s-.5061102-.3373935-.843517-.3373935c-.33740678 0-.75916527.08434837-1.01222037.3373935-.2530551.33739351-.50611019.67478701-.67481359 1.0965289z"/><path d="m12.9901616 7.08526364 1.096572-4.63916072h.7591653l-.2530551.92783214c.2530551-.3373935.5061102-.59043863.7591653-.75913538.2530551-.16869676.5061102-.25304513.7591653-.25304513.1687034 0 .4217585.08434837.6748136.16869675l-.3374068.75913539c-.1687034-.08434838-.3374068-.16869676-.5061102-.16869676-.3374068 0-.5904619.16869676-.9278687.50609026-.3374068.33739351-.5904619.84348377-.7591653 1.68696754l-.4217585 1.85566428h-.8435169z"/><path d="m17.8825601 7.08526364-.843517-4.63916072h.843517l.4217585 2.5304513c.0843517.25304513.0843517.75913539.1687034 1.34957403.1687034-.33739351.4217584-.67478702.6748135-1.0965289l1.687034-2.78349643h.9278687l-2.9523095 4.63916072z"/><path d="m21.7627382 7.08526364 1.0965721-4.63916072h.843517l-1.0965721 4.63916072zm1.2652755-5.56699286.1687034-.92783214h.843517l-.1687034.92783214z"/><path d="m27.8360605 5.3982961.843517.08434838c-.2530551.59043864-.5061102 1.01218052-.9278687 1.26522565s-.843517.42174188-1.3496272.42174188c-.5904619 0-1.0122204-.16869675-1.3496272-.50609026-.3374068-.3373935-.5061102-.75913539-.5061102-1.34957402 0-.50609026.0843517-1.01218052.3374068-1.51827078s.5061102-.84348377.9278687-1.0965289.9278687-.42174188 1.4339789-.42174188c.5904619 0 1.0122204.16869675 1.3496272.42174188s.5061102.67478701.5061102 1.0965289l-.843517.08434837c0-.25304513-.0843517-.50609026-.2530551-.67478701s-.4217585-.25304513-.7591653-.25304513-.6748136.08434838-.9278687.33739351c-.2530551.16869675-.4217585.50609026-.5904619.92783214s-.2530551.84348377-.2530551 1.18087727c0 .42174189.0843517.67478702.2530551.92783215.1687034.16869675.4217585.3373935.7591653.3373935.2530551 0 .5904619-.08434837.843517-.25304513.1687034-.3373935.3374068-.59043863.5061102-1.01218052z"/><path d="m33.3189209 5.48264448.843517.08434838c-.0843517.42174188-.4217585.75913539-.843517 1.09652889-.4217585.33739351-.9278687.50609026-1.6026823.50609026-.4217585 0-.7591653-.08434837-1.0122204-.25304513-.3374068-.16869675-.5904619-.42174188-.7591653-.67478701-.1687034-.33739351-.2530551-.67478701-.2530551-1.01218052 0-.50609026.1687034-1.01218052.4217585-1.4339224.2530551-.50609026.5904619-.84348377 1.0122204-1.0965289s.843517-.3373935 1.3496272-.3373935c.5904619 0 1.0965721.16869675 1.4339789.50609026.3374068.3373935.5904619.84348376.5904619 1.4339224 0 .25304513 0 .42174188-.0843517.67478701h-3.7958265v.25304513c0 .42174188.0843517.75913539.3374068 1.01218052s.5061102.33739351.843517.33739351.5904619-.08434838.9278687-.25304513c.1687034-.25304513.4217585-.50609026.5904619-.84348377zm-2.6149027-1.18087727h2.8679578c0-.08434838 0-.16869676 0-.16869676 0-.42174188-.0843517-.67478701-.3374068-.92783214s-.5061102-.3373935-.843517-.3373935-.7591653.08434837-1.0122204.3373935c-.2530551.33739351-.5061102.67478701-.6748136 1.0965289z"/><path d="m35.3433616 5.48264448.843517-.08434838c0 .25304513 0 .42174189.0843517.59043864s.2530551.25304513.4217585.42174188c.2530551.08434838.4217585.16869676.7591653.16869676.4217585 0 .6748136-.08434838.843517-.16869676.1687034-.16869675.2530551-.3373935.2530551-.50609026 0-.16869675-.0843517-.25304513-.1687034-.42174188-.0843517-.08434838-.4217585-.25304513-.843517-.42174188-.5061102-.16869676-.7591653-.33739351-.9278687-.33739351-.2530551-.08434838-.3374068-.25304513-.5061102-.42174188-.0843517-.16869676-.1687034-.33739351-.1687034-.59043864 0-.33739351.1687034-.67478701.5061102-.92783214s.7591653-.42174188 1.3496272-.42174188c.6748136 0 1.1809238.16869675 1.5183306.42174188s.5061102.59043863.5061102 1.09652889l-.843517.08434838c0-.25304513-.0843517-.50609026-.3374068-.67478701-.1687034-.16869676-.5061102-.25304513-.843517-.25304513s-.5061102.08434837-.6748136.16869675-.2530551.25304513-.2530551.42174188c0 .16869676.0843517.25304513.2530551.42174189.0843517.08434837.3374068.16869675.7591653.3373935.6748136.25304513 1.0965721.50609026 1.2652755.59043864.2530551.25304513.4217585.50609026.4217585.84348377 0 .25304513-.0843517.42174188-.2530551.67478701s-.4217585.42174188-.7591653.50609026c-.3374068.16869675-.6748136.16869675-1.1809238.16869675-.5904619 0-1.0965721-.16869675-1.5183306-.42174188-.2530551-.25304513-.5061102-.67478701-.5061102-1.26522565z"/><path d="m40.7418703 7.08526364.1687034-.92783215h1.0122204l-.1687034.75913539c-.0843517.50609026-.2530551.84348377-.5061102 1.01218052-.2530551.25304513-.5061102.33739351-.843517.33739351l.0843517-.33739351c.4217585-.08434837.6748136-.42174188.7591653-.92783214h-.5061102z"/><path d="m46.8151926 7.08526364 1.5183306-6.41047663h.9278687l-1.5183306 6.41047663z"/><path d="m49.5987987 7.08526364 1.0965721-4.63916072h.7591652l-.1687034.84348377c.3374068-.33739351.6748136-.59043864 1.0122204-.67478701.3374068-.16869676.5904619-.25304513.9278687-.25304513.4217585 0 .7591653.08434837 1.0122204.3373935.2530551.16869676.3374068.50609026.3374068.84348377 0 .16869675 0 .42174188-.1687034.84348376l-.6748136 2.78349643h-.843517l.6748136-2.95219318c.0843517-.25304513.0843517-.50609026.0843517-.67478701 0-.16869676-.0843517-.25304513-.1687034-.33739351s-.2530551-.16869675-.5061102-.16869675c-.4217585 0-.843517.16869675-1.1809238.42174188s-.5904619.75913539-.7591653 1.51827078l-.5061101 2.19305779h-.9278687z"/><path d="m58.9618372 5.3982961.843517.08434838c-.2530551.59043864-.5061102 1.01218052-.9278687 1.26522565s-.843517.42174188-1.3496272.42174188c-.5904619 0-1.0122204-.16869675-1.3496271-.50609026-.3374068-.3373935-.5061102-.75913539-.5061102-1.34957402 0-.50609026.0843517-1.01218052.3374068-1.51827078s.5061101-.84348377.9278686-1.0965289.9278687-.42174188 1.4339789-.42174188c.5904619 0 1.0122204.16869675 1.3496272.42174188s.5061102.67478701.5061102 1.0965289l-.843517.08434837c0-.25304513-.0843517-.50609026-.2530551-.67478701s-.4217585-.25304513-.7591653-.25304513-.6748136.08434838-.9278687.33739351c-.2530551.16869675-.4217585.50609026-.5904619.92783214s-.2530551.84348377-.2530551 1.18087727c0 .42174189.0843517.67478702.2530551.92783215.1687034.16869675.4217585.3373935.7591653.3373935.2530551 0 .5904619-.08434837.843517-.25304513.0843517-.3373935.3374068-.59043863.5061102-1.01218052z"/><path d="m60.8175746 7.08526364.1687034-.92783215h1.0122203l-.2530551.92783215z"/></g></g></g></svg>