<svg height="69" viewBox="0 0 89 69" width="89" xmlns="http://www.w3.org/2000/svg"><g fill="none"><g fill="#fafafa"><path d="m6.47038111 8.39748338 3.98177299.0415717-3.19371375 2.32801522 1.20282726 3.8245964-3.23519056-2.3280152-3.23519055 2.2864435 1.20282725-3.7830247-3.19371375-2.36958692h3.98177299l1.24430406-3.78302469z"/><path d="m16.3833368 11.0165005h2.5715617l-2.0738401 1.5381529.7465824 2.494302-2.0738401-1.5381529-2.1153169 1.4965812.7880593-2.4527303-2.0738401-1.5381529h2.6130385l.7880592-2.45273032z"/><path d="m11.0743061 20.7442783h1.5346417l-1.2443041.9145774.4562449 1.4965811-1.2443041-.9145774-1.24430405.8730057.49772162-1.4550094-1.24430406-.9145774h1.53464169l.4977216-1.4550095z"/></g><g transform="translate(2.488608)"><g fill="#0daf4b"><path d="m60.6805613 51.2163343h9.7055717l-1.8249793-5.5290361c-3.2766674-.4988604-6.6777651-.9145774-10.1618165-1.1640076z"/><path d="m53.2562138 28.9339031 3.8158657 11.4737892h-.414768c3.8158658.5404321 7.4658244 1.2055793 10.8669221 2.0370133l-9.1248964-27.562037h-5.2675539l-2.7789457 8.2311965c-.5806752-.831434-1.3272576-1.6212962-2.2812241-2.4111585l-13.9776823-11.97264962.1244304.0831434c-.6636288-.831434-.9954432-1.4550095-.9954432-1.9954416 0-.95614909.5806752-1.74601139 1.7005489-2.32801519 1.1198736-.6235755 2.6130385-.9145774 4.5209714-.9145774 3.8158658 0 6.1385667 2.2033001 6.9681027 6.56832861l5.1016467-.62357552c-.9124897-6.31889839-4.7698323-9.51991928-11.737935-9.51991928h-.7465824c-1.9494097 0-3.6914354.2078585-5.1431235.7067189-1.5346416.4572887-2.8204225 1.1224359-3.8158658 1.95386989-1.03692.831434-1.866456 1.7875831-2.4056545 2.8684473-.5391984 1.08086419-.829536 2.16172839-.829536 3.32573599 0 1.20557932.2903376 2.41115862.8710128 3.57516622.5806753 1.2055793 1.5346417 2.3280152 2.737469 3.4088794l13.9362054 11.9726495-.1244304-.0831434c.7051057.831434 1.0369201 1.5381529 1.0369201 2.2033001 0 .9561491-.6636289 1.7460114-1.8664561 2.3280152-1.2443041.6235755-2.8618994.9145774-4.8527859.9145774-4.5209714 0-7.1340099-2.2033001-7.9635459-6.5683286l-5.1016467.6235755c.8710129 6.3604701 5.1016467 9.561491 12.6919014 9.561491 2.1153169 0 4.0232498-.2494302 5.7237987-.7482906.829536-.2494302 1.5761185-.4988604 2.2397473-.831434l-1.4102113 4.1155983c1.6175953.0831434 3.1937138.1662868 4.8113091.3325736z"/><path d="m40.85465 51.2163343h4.8942626l2.3641777-7.0256173c-1.6590721 0-3.3181442.0415717-4.9357394.1247151z"/></g><path d="m84.9859673 49.5118946c-1.2443041-.8730057-2.737469-1.7460114-4.396541-2.5358737-3.6084818-1.7460114-8.0879764-3.2841643-13.1066695-4.4897436-3.4010977-.831434-7.0510563-1.4965812-10.8669221-2.0370133-2.2812241-.3325736-4.603925-.5820038-6.9681027-.7898623-1.5761185-.1247151-3.1937138-.2494302-4.8113091-.3325736-2.1153169-.0831434-4.2306338-.1662868-6.3459507-.1662868-7.5073011 0-14.6827879.6651472-20.7384009 1.9122982-10.61806136 2.2033001-17.00548886 6.0278965-17.58616409 10.4760684-.41476802 3.4920228 2.82042253 7.1087607 9.20785004 10.2266382 1.65907205.831434 3.56700495 1.5797246 5.59936825 2.2864435l.0829536-.1247151c-3.6084818-2.5358737-5.22607703-5.2796059-4.6868786-7.9401947.8710128-4.1987417 7.2169635-7.8570513 17.37878-9.9356363 4.6039251-.9561491 9.8300021-1.5797246 15.3878936-1.7875831 1.6175952-.0831434 3.2766673-.1247151 4.9357394-.1247151h.3732912c3.3181442 0 6.6362883.1247151 9.8714789.3741453 3.4840514.2494302 6.8851491.6651472 10.1618165 1.1640076 5.9726595.9145774 11.5720277 2.2448718 16.34186 3.9493115z" fill="#c4e7d1"/><path d="m76.6076533 35.1280864 3.5670049.0415717-2.8618993 2.078585 1.0369201 3.3673077-2.8618994-2.078585-2.8618993 2.078585 1.0783968-3.3673077-2.8204225-2.1201567h3.5255282l1.1198736-3.3673077z" fill="#fafafa"/><path d="m83.6172328 53.336491h2.1982705l-1.7835025 1.2887227.6636289 2.1201567-1.7835025-1.2887227-1.7835025 1.2887227.6636288-2.1201567-1.7420257-1.2887227h2.1982705l.7051057-2.1201567z" fill="#fafafa"/><g fill="#fafafa"><g transform="translate(21.567937 52.796059)"><path d="m4.1476802 8.60534188c-1.32725766 0-2.32270091-.415717-3.02780655-1.247151-.66362883-.7898623-.99544324-1.74601139-.99544324-2.86844729s.33181441-2.0370133.95396644-2.82687559c.70510564-.8730057 1.65907208-1.2887227 2.94485294-1.2887227.08295361 0 .20738401 0 .37329122.0415717.16590721 0 .37329122.0415717.58067523.0831434.24886081.0415717.41476802.0415717.53919842.0415717 0 0 .04147681-.0415717.08295361-.0831434s.1244304-.0415717.16590721-.0831434c.0829536-.0415717.1244304-.0415717.1659072-.0831434.04147681 0 .08295361-.0415717.12443041-.0415717.24886081 0 .45624482.2494302.66362883.7898623.20738401.4572887.29033762.831434.29033762 1.0392925 0 .0831434-.04147681.16628679-.12443041.20785849s-.20738401.0831434-.37329122.0831434c-.20738401-.1662868-.37329122-.33257359-.53919842-.45728869-.16590721-.1247151-.33181442-.2494302-.49772163-.3325736-.20738401-.1247151-.41476802-.2078585-.62215203-.2910019s-.45624482-.0831434-.70510563-.0831434c-.66362883 0-1.20282726.3741453-1.53464167 1.12243589-.24886082.5404321-.37329122 1.2055793-.37329122 1.9954416 0 .9561491.1244304 1.7044397.37329122 2.2033001.37329121.74829059.99544324 1.12243589 1.82497928 1.12243589.20738401 0 .41476802-.0415717.62215203-.0831434s.41476802-.1247151.62215203-.2494302c.37329122-.2078585.66362883-.3741453.82953604-.4572887.20738401-.1247151.33181442-.1662868.37329122-.1662868.0829536 0 .16590721 0 .20738401.0415717s.0829536.0831434.12443041.1247151c.0414768.0415717.0414768.0831434.0414768.1247151v.1662868c0 .0831434-.0414768.1662868-.12443041.2494302-.0414768.0831434-.1244304.2078585-.24886081.2910019-.0829536.0831434-.20738401.1662868-.37329122.2494302s-.33181441.1662868-.53919842.2494302c-.62215203.2494302-1.24430406.415717-1.82497929.415717z"/><path d="m10.5351077 7.56604938c0 .0831434.0414768.1662868.0829536.2494302s.1244304.1247151.2903376.1247151h.7465825.4562448.2488608.1244304c.1244304 0 .2903376-.0415717.4562448-.1662868s.3318144-.2494302.4977216-.415717c.1244305-.0831434.2073841-.1247151.3318145-.1662868.0829536 0 .1244304.0831434.1244304.2078585 0 .0831434-.0829536.2494302-.207384.5404321-.0414768.0831434-.0829536.2078585-.1244304.2910019-.0414769.0831434-.0829537.1662868-.1244305.2078585s-.0829536.0831434-.1659072.1247151-.1659072.0415717-.2488608.0415717h-4.56244819c-.16590721 0-.24886082-.0831434-.24886082-.2494302 0-.1247151.12443041-.2078585.33181442-.2494302.20738401-.0831434.33181442-.2078585.33181442-.3741453v-4.82231719c0-.2078585-.12443041-.3325736-.33181442-.3741453-.20738401-.0831434-.33181442-.1662868-.33181442-.2494302 0-.16628679.08295361-.24943019.24886082-.24943019h2.48860809c.1659072 0 .2488608.0831434.2488608.24943019 0 .1247151-.1244304.2078585-.3318144.2494302-.207384.0831434-.3318144.2078585-.3318144.3741453z"/><path d="m16.9225352 4.36502849c.1659072.0415717.2903376.0831434.4562448.0831434h.3318144.3318145c.207384 0 .3318144.0415717.4562448.0831434s.1659072.1662868.1659072.3325736-.0829536.2494302-.1659072.3325736c-.1244304.0415717-.2903376.0831434-.4977216.0831434-.1659072 0-.3318145 0-.4562449 0s-.207384 0-.207384 0c-.0829536 0-.1659072 0-.2903376.0415717s-.1659072.1247151-.1659072.2494302v2.07858499c0 .1662868.0414768.2494302.1244304.2910019s.1659072.0415717.3318144.0415717h.5806753.6636288c.1659072 0 .3318144-.0415717.4977216-.0831434s.2903376-.1247151.414768-.2494302.2488608-.2078585.3318145-.2910019c.0829536-.0831434.1659072-.1247151.1659072-.1247151.0829536 0 .1659072 0 .207384.0415717s.0829536.0831434.0829536.1662868c0 .0415717 0 .0831434-.0414768.2078585-.0414768.0831434-.0829536.1662868-.1244304.2910019s-.1244304.2078585-.1659072.3325736c-.0829536.0831434-.1244304.1662868-.1659073.2494302-.0829536.0831434-.1244304.1247151-.2488608.1247151-.0829536.0415717-.1659072.0415717-.207384.0415717h-4.4794946c-.0829536 0-.1659072-.0415717-.207384-.0831434s-.0829536-.1247151-.0829536-.2078585c0-.0415717.0414768-.0831434.1244304-.1247151s.1244304-.0831434.207384-.0831434c.0829536-.0415717.1659072-.0831434.207384-.1247151.0829536-.0415717.1244304-.1247151.1244304-.2494302v-4.90546059c0-.0831434-.0414768-.1662868-.1244304-.2078585s-.1244304-.0831434-.207384-.1247151-.1659072-.0831434-.207384-.1247151c-.0829536-.0415717-.1244304-.0831434-.1244304-.1662868 0-.16628679.0829536-.24943019.2488608-.24943019h4.3135874c.1244304 0 .207384.0415717.2903376.0831434s.1659072.12471509.2488608.24943019c.0829536.0831434.1244304.2078585.1659073.3325736.0414768.1247151.0829536.2494302.0829536.3741453 0 .0415717 0 .0415717-.0414768.0831434s-.0414768.0831434-.0829537.0831434c-.0414768.0415717-.0829536.0415717-.1244304.0415717s-.0829536 0-.1244304-.0415717c-.207384-.1247151-.3732912-.2494302-.4977216-.3325736s-.2488608-.1247151-.3732912-.1662868-.2903376-.0831434-.4562448-.0831434-.414768 0-.7465825 0c-.2488608 0-.414768.0415717-.4977216.0831434-.0829536.0831434-.1244304.1662868-.1244304.2494302v.7482906.415717.1662868c.0829536 0 .0829536.0415717.0829536.0415717z"/><path d="m25.0105116 8.60534188c-.207384 0-.2903376-.0831434-.2903376-.2494302 0-.0831434.0829536-.1662868.207384-.2078585.1659072-.0415717.2903376-.1247151.3732912-.2078585s.1244304-.1662868.0829536-.2494302l-.3318144-.9145774c-.207384-.0415717-.414768-.0415717-.622152-.0415717-.2903376.0831434-.5391985.0831434-.7880593 0-.207384-.0415717-.2903376-.1662868-.2903376-.29100189 0-.1247151.0414768-.2078585.1659072-.2494302s.2903376-.0831434.4977217-.0831434h.3732912c.1244304 0 .2488608-.0415717.2903376-.0831434 0-.0831434-.0414768-.2078585-.1244304-.415717s-.1659072-.415717-.2488608-.6235755-.1659072-.415717-.2488608-.5820038c-.0829537-.1662868-.1244305-.2910019-.1659073-.3741453-.0829536.1662868-.207384.415717-.3318144.7482906s-.2903376.7067189-.4562448 1.1640076c-.207384.4988604-.3318144.91457739-.414768 1.24715099s-.1244304.5404321-.1244304.6235755c0 .1662868.0829536.2910019.2903376.3325736.207384.0831434.2903376.1662868.2903376.2494302 0 .1662868-.0829536.2494302-.2903376.2494302h-1.7005489c-.0829536 0-.1659072-.0415717-.1659072-.0831434-.0414768-.0415717-.0414768-.1247151-.0414768-.2078585.207384-.1247151.3732912-.2494302.5391984-.3741453s.2903376-.2494302.3318144-.3741453c.3318145-.8730057.6636289-1.74601139.9539665-2.57744539.2903376-.8730057.622152-1.7460114.9539664-2.6190171.0414768-.1247151.1244304-.2078585.2488608-.24943019.1244305-.0415717.2488609-.0831434.3732913-.0831434.1659072 0 .2903376.0415717.4562448.0831434.1659072.04157169.2488608.12471509.2903376.24943019.3318144.8730057.6636288 1.7460114 1.0369201 2.5774454.3318144.8730057.6636288 1.70443969.9954432 2.57744539.0414768.0831434.1244304.1662868.207384.2494302s.2488608.1662868.4562448.2910019c.0829536.0831434.1659072.1247151.2488608.1662868s.1244305.0831434.1244305.1662868c0 .1662868-.0829537.2494302-.2903377.2494302h-2.8618993z"/><path d="m34.7575601 2.91001899v.9977208c0 .3741453 0 .7898623.0414768 1.2055793v1.2055793 1.08086419c0 .3325736 0 .5820038-.0414768.7898623 0 .2078585-.0414768.2910019-.0829536.3325736s-.0829536.0831434-.1659072.0831434-.1244305.0415717-.2073841.0415717-.1244304 0-.207384-.0415717c-.0829536 0-.1244304-.0415717-.1659072-.0831434-.5806752-.7067189-1.1613504-1.4134378-1.7835025-2.20330009-.622152-.7482906-1.2857808-1.4965812-1.9908865-2.2033001v3.57516619c0 .1662868.1244305.2910019.3318145.3325736.207384.0831434.3318144.1662868.3318144.2910019 0 .1662868-.0829536.2494302-.2488608.2494302h-1.7005489c-.1659072 0-.2488608-.0831434-.2488608-.2494302 0-.0831434.1244304-.2078585.3318144-.2494302s.3318144-.1662868.3318144-.3741453v-4.78074549c0-.1662868-.1244304-.2910019-.3318144-.3741453-.207384-.0415717-.3318144-.1247151-.3318144-.2494302 0-.16628679.0829536-.24943019.2488608-.24943019h1.4516881c.0414768 0 .1659072.0831434.3318144.20785849.1659072.1662868.3318144.3325736.5391984.5820038s.4562448.4988604.6636288.7898623c.2488608.2910019.4977217.5820038.7465825.8730057s.4977216.5404321.7051056.7898623.414768.4572887.5806752.5820038c0 0 0-.0415717 0-.0831434s0-.1662868 0-.3325736 0-.4572887 0-.8730057c0-.3741453 0-.9561491 0-1.662868 0-.1662868-.1244304-.2910019-.414768-.3741453-.1244304-.0415717-.207384-.1247151-.207384-.2078585 0-.16628679.0829536-.24943019.2488608-.24943019h1.6590721c.1659072 0 .2903376.0831434.2903376.24943019 0 .1247151-.1244304.2078585-.3318144.2494302-.2488608.0415717-.3732912.1662868-.3732912.3325736z"/><path d="m36.5410626 8.60534188c-.1659073 0-.2488609-.0831434-.2488609-.2494302 0-.1247151.1244304-.2078585.3318145-.2494302.207384-.0831434.3318144-.2078585.3318144-.3741453v-4.82231719c0-.1662868-.1244304-.2910019-.3318144-.3741453-.2073841-.0415717-.3318145-.1247151-.3318145-.2494302 0-.16628679.0829536-.24943019.2488609-.24943019h2.4886081c.1659072 0 .2488608.0831434.2488608.24943019 0 .1247151-.1244304.2078585-.3318144.2494302-.207384.0831434-.3318144.2078585-.3318144.3741453v4.82231719c0 .1662868.1244304.2910019.3318144.3741453s.3318144.1662868.3318144.2494302c0 .1662868-.0829536.2494302-.2488608.2494302z"/><path d="m46.1636806 2.91001899v.9977208c0 .3741453 0 .7898623.0414768 1.2055793v1.2055793 1.08086419c0 .3325736 0 .5820038-.0414768.7898623 0 .2078585-.0414768.2910019-.0829536.3325736s-.0829536.0831434-.1659072.0831434-.1244304.0415717-.207384.0415717-.1244304 0-.207384-.0415717c-.0829536 0-.1244304-.0415717-.1659072-.0831434-.5806753-.7067189-1.1613505-1.4134378-1.7835025-2.20330009-.622152-.7482906-1.2857809-1.4965812-1.9908865-2.2033001v3.57516619c0 .1662868.1244304.2910019.3318144.3325736.207384.0831434.3318144.1662868.3318144.2910019 0 .1662868-.0829536.2494302-.2488608.2494302h-1.7420257c-.1659072 0-.2488608-.0831434-.2488608-.2494302 0-.0831434.1244304-.2078585.3318144-.2494302s.3318144-.1662868.3318144-.3741453v-4.78074549c0-.1662868-.1244304-.2910019-.3318144-.3741453-.207384-.0415717-.3318144-.1247151-.3318144-.2494302 0-.16628679.0829536-.24943019.2488608-.24943019h1.4516881c.0414768 0 .1659072.0831434.3318144.20785849.1659072.1662868.3318144.3325736.5391984.5820038.2073841.2494302.4562449.4988604.7051057.7898623s.4977216.5820038.7465824.8730057.4562448.5404321.7051056.7898623c.2073841.2494302.4147681.4572887.5806753.5820038 0 0 0-.0415717 0-.0831434s0-.1662868 0-.3325736 0-.4572887 0-.8730057c0-.3741453 0-.9561491 0-1.662868 0-.1662868-.1244304-.2910019-.414768-.3741453-.1244305-.0415717-.2073841-.1247151-.2073841-.2078585 0-.16628679.0829536-.24943019.2488609-.24943019h1.659072c.1659072 0 .2903376.0831434.2903376.24943019 0 .1247151-.1244304.2078585-.3318144.2494302-.2903376.0415717-.3732912.1662868-.3732912.3325736z"/><path d="m53.5465514 7.27504748s.0414768.0415717.0829536.0415717.0829536.0415717.1244304.0415717h.0414768c0 .0415717.0414768.0831434.0414768.1247151s.0414768.0831434.0414768.1247151c0 .1247151-.1244304.2910019-.3318144.415717s-.5391985.2494302-.9124897.3741453c-.2903376.0831434-.5806752.1247151-.8710128.1662868s-.5806752.0831434-.8295361.0831434c-.5391984 0-.9954432-.0831434-1.4102112-.2494302s-.7465825-.415717-1.0369201-.7067189-.4977216-.6651472-.6636288-1.0392925c-.1659072-.41571699-.2488608-.83143399-.2488608-1.33029439 0-.415717.0829536-.831434.2488608-1.247151.1659072-.3741453.3732912-.7067189.6636288-.9977208s.6221521-.5404321 1.0369201-.7067189.829536-.29100189 1.2857808-.29100189h.4562449c.1659072 0 .2903376.0415717.4562448.0415717.1244304.0415717.2488608.0415717.3732912.0415717.0829536 0 .1659072 0 .207384-.0415717s.0829536-.0415717.1659072-.0831434.1659072-.0831434.2488608-.0831434.1659072.0415717.2488608.1662868c.0829536.12471509.1659072.29100189.2488609.49886039.0829536.2078585.1659072.3741453.207384.4572887.0414768.1247151.0414768.2078585.0414768.2494302s-.0414768.0831434-.0829536.1247151-.0829536.0831434-.1244304.1247151-.1244305.0415717-.1659073.0415717-.0829536-.0415717-.1244304-.0831434-.0829536-.0831434-.1244304-.1247151-.0829536-.0415717-.0829536-.0831434c-.0414768 0-.0829536-.0415717-.0829536-.0831434-.0414768-.0415717-.0829536-.0415717-.1244304-.1247151-.1659072-.1662868-.3732912-.2910019-.6636288-.3741453-.2488608-.0831434-.4977216-.1247151-.7880593-.1247151-.3318144 0-.5806752.0831434-.829536.2494302-.207384.1662868-.414768.415717-.5391984.6651472s-.2488608.5404321-.2903376.8730057c-.0829536.3325736-.0829536.6235755-.0829536.8730057 0 .3325736.0414768.6651472.1244304.9561491s.1659072.58200379.3318144.78986229c.1659072.2494302.3732912.415717.622152.5404321s.5806752.2078585.9539665.2078585h.2488608c.0829536 0 .1659072 0 .207384-.0415717s.1244304-.0831434.1659072-.1247151.0829536-.1247151.0829536-.2078585v-1.08086419c0-.1662868-.0829536-.2910019-.2903376-.3741453-.2903376-.0831434-.414768-.1662868-.414768-.2910019 0-.0831434.0414768-.1662868.1244304-.2078585s.207384-.0415717.3318144-.0415717h1.8664561c.1244304 0 .2488608 0 .3318144.0415717s.1244304.0831434.1244304.2078585c0 .0831434-.1244304.2078585-.3732912.2910019-.0829536.0415717-.1244304.0831434-.1659072.1662868s-.0829536.1247151-.0829536.2078585z"/></g><g transform="translate(45.209714 63.188984)"><path d="m.33181442 2.45273029.45624482-.0415717v.1247151c0 .1247151.0414768.2494302.0829536.3325736.08295361.0831434.16590721.1662868.29033762.2494302.1244304.0415717.33181441.0831434.49772162.0831434.29033761 0 .49772162-.0415717.62215203-.1662868.16590721-.1247151.20738401-.2494302.20738401-.3741453 0-.0831434-.0414768-.2078585-.12443041-.2910019-.0829536-.0831434-.29033761-.20785849-.66362883-.33257359-.29033761-.1247151-.45624482-.2078585-.58067523-.2494302-.1659072-.0831434-.29033761-.2078585-.33181441-.2910019-.08295361-.1247151-.12443041-.2494302-.12443041-.3741453 0-.1662868.0414768-.2910019.16590721-.4572887.0829536-.1247151.24886081-.2494302.41476802-.2910019.20738401-.0831434.41476802-.0831434.66362883-.0831434.29033762 0 .53919843.0415717.70510564.1247151.20738401.0831434.33181441.2078585.41476802.3325736.0829536.1247151.1244304.2910019.1244304.415717v.0831434l-.45624482.0415717c0-.0831434 0-.1662868-.0414768-.2078585-.0414768-.0831434-.08295361-.1662868-.16590721-.2078585s-.16590721-.1247151-.29033761-.1662868c-.12443041-.0415717-.24886082-.0415717-.37329122-.0415717-.24886081 0-.45624482.0415717-.58067523.1662868-.12443041.0831434-.16590721.1662868-.16590721.3325736 0 .0831434.0414768.1662868.08295361.2078585.0414768.0415717.1244304.1247151.24886081.1662868.0829536.0415717.29033761.1247151.58067523.2494302.24886081.0831434.41476802.1662868.53919842.2494302.12443041.0831434.20738401.16628679.29033762.29100189.0829536.1247151.0829536.2494302.0829536.3741453 0 .1662868-.0414768.3325736-.16590721.4572887-.1244304.1247151-.29033761.2494302-.49772162.3325736s-.45624482.1247151-.70510564.1247151c-.41476802 0-.70510563-.0831434-.95396644-.2494302-.08295361-.2078585-.20738401-.4988604-.24886081-.9145774z"/><path d="m5.43346106 2.70216049.41476802.0415717c-.0414768.2078585-.20738401.3741453-.41476802.5404321s-.45624482.2494302-.78805924.2494302c-.20738401 0-.37329122-.0415717-.49772162-.1247151-.16590721-.0831434-.29033762-.2078585-.37329122-.3325736-.0829536-.1662868-.12443041-.3325736-.12443041-.4988604 0-.2494302.08295361-.49886039.20738401-.70671889.12443041-.2494302.29033762-.415717.49772163-.5404321s.41476802-.1662868.66362883-.1662868c.29033761 0 .53919843.0831434.74658244.2494302.1659072.1662868.29033761.415717.29033761.7067189 0 .12471509 0 .20785849-.0414768.33257359h-1.86645609v.1247151c0 .2078585.0414768.3741453.16590721.4988604.1244304.1247151.24886081.1662868.41476802.1662868.1659072 0 .29033761-.0415717.45624482-.1247151.0414768-.1247151.16590721-.2494302.24886081-.415717zm-1.28578086-.58200379h1.41021127c0-.0415717 0-.0831434 0-.0831434 0-.2078585-.04147681-.3325736-.16590721-.4572887-.12443041-.1247151-.24886081-.1662868-.41476802-.1662868s-.37329122.0415717-.49772163.1662868c-.1244304.1662868-.24886081.3325736-.33181441.5404321z"/><path d="m6.38742751 3.49202279.53919842-2.28644349h.37329122l-.12443041.4572887c.12443041-.1662868.24886082-.2910019.37329122-.3741453.12443041-.0831434.24886081-.1247151.37329122-.1247151.0829536 0 .20738401.0415717.33181442.0831434l-.16590721.3741453c-.08295361-.0415717-.16590721-.0831434-.24886081-.0831434-.16590721 0-.29033762.0831434-.45624483.2494302-.1659072.1662868-.29033761.41571699-.37329121.83143399l-.20738401.9145774h-.41476802z"/><path d="m8.79308202 3.49202279-.41476802-2.28644349h.41476802l.20738401 1.24715099c.0414768.1247151.0414768.3741453.08295361.6651472.0829536-.1662868.20738401-.3325736.33181441-.5404321l.82953605-1.37186609h.4562448l-1.45168806 2.28644349z"/><path d="m10.7010149 3.49202279.5391984-2.28644349h.4147681l-.5391985 2.28644349zm.622152-2.74373219.0829536-.4572887h.4147681l-.0829536.4572887z"/><path d="m13.6873447 2.66058879.414768.0415717c-.1244304.2910019-.2488608.4988604-.4562448.6235755-.2073841.1247151-.4147681.2078585-.6636289.2078585-.2903376 0-.4977216-.0831434-.6636288-.2494302s-.2488608-.3741453-.2488608-.6651472c0-.2494302.0414768-.49886039.1659072-.74829059s.2488608-.415717.4562448-.5404321.4562448-.2078585.7051056-.2078585c.2903377 0 .4977217.0831434.6636289.2078585s.2488608.3325736.2488608.5404321l-.414768.0415717c0-.1247151-.0414768-.2494302-.1244304-.3325736s-.207384-.1247151-.3732913-.1247151c-.1659072 0-.3318144.0415717-.4562448.1662868-.1244304.0831434-.207384.2494302-.2903376.4572887-.0829536.20785849-.1244304.41571699-.1244304.58200379 0 .2078585.0414768.3325736.1244304.4572887.0829536.0831434.207384.1662868.3732912.1662868.1244304 0 .2903376-.0415717.414768-.1247151.0829536-.1662868.1659073-.2910019.2488609-.4988604z"/><path d="m16.3833368 2.70216049.414768.0415717c-.0414768.2078585-.207384.3741453-.414768.5404321s-.4562448.2494302-.7880593.2494302c-.207384 0-.3732912-.0415717-.4977216-.1247151-.1659072-.0831434-.2903376-.2078585-.3732912-.3325736-.0829536-.1662868-.1244304-.3325736-.1244304-.4988604 0-.2494302.0829536-.49886039.207384-.70671889.1244304-.2494302.2903376-.415717.4977216-.5404321s.4147681-.1662868.6636289-.1662868c.2903376 0 .5391984.0831434.7051056.2494302s.2903376.415717.2903376.7067189c0 .12471509 0 .20785849-.0414768.33257359h-1.8664561v.1247151c0 .2078585.0414768.3741453.1659072.4988604s.2488608.1662868.414768.1662868c.1659073 0 .2903377-.0415717.4562449-.1247151.0829536-.1247151.207384-.2494302.2903376-.415717zm-1.2857809-.58200379h1.4102113c0-.0415717 0-.0831434 0-.0831434 0-.2078585-.0414768-.3325736-.1659072-.4572887s-.2488608-.1662868-.414768-.1662868-.3732913.0415717-.4977217.1662868c-.1244304.1662868-.2488608.3325736-.3318144.5404321z"/><path d="m17.37878 2.70216049.4147681-.0415717c0 .1247151 0 .2078585.0414768.2910019s.1244304.1247151.207384.2078585c.1244304.0415717.207384.0831434.3732912.0831434.207384 0 .3318144-.0415717.414768-.0831434.0829536-.0831434.1244304-.1662868.1244304-.2494302s-.0414768-.1247151-.0829536-.2078585c-.0414768-.0415717-.207384-.1247151-.414768-.2078585-.2488608-.0831434-.3732912-.1662868-.4562448-.1662868-.1244304-.0415717-.1659072-.1247151-.2488608-.20785849-.0414769-.0831434-.0829537-.1662868-.0829537-.2910019 0-.1662868.0829537-.3325736.2488609-.4572887s.3732912-.2078585.6636288-.2078585c.3318144 0 .5806752.0831434.7465824.2078585s.2488608.2910019.2488608.5404321l-.414768.0415717c0-.1247151-.0414768-.2494302-.1659072-.3325736-.0829536-.0831434-.2488608-.1247151-.414768-.1247151s-.2488608.0415717-.3318144.0831434-.1244304.1247151-.1244304.2078585.0414768.1247151.1244304.2078585c.0414768.0415717.1659072.0831434.3732912.1662868.3318144.12471509.5391984.24943019.622152.29100189.1244304.1247151.207384.2494302.207384.415717 0 .1247151-.0414768.2078585-.1244304.3325736s-.207384.2078585-.3732912.2494302c-.1659072.0831434-.3318144.0831434-.5806752.0831434-.2903376 0-.5391984-.0831434-.7465825-.2078585-.1244304-.1247151-.2488608-.3325736-.2488608-.6235755z"/><path d="m20.0332954 3.49202279.0829536-.4572887h.4977216l-.0829536.3741453c-.0414768.2494302-.1244304.415717-.2488608.4988604-.1244304.1247151-.2488608.1662868-.414768.1662868l.0414768-.1662868c.207384-.0415717.3318144-.2078585.3732912-.4572887h-.2488608z"/><path d="m23.0196251 3.49202279.7465824-3.15944919h.4562449l-.7465825 3.15944919z"/><path d="m24.3883596 3.49202279.5391984-2.28644349h.3732912l-.0829536.415717c.1659072-.1662868.3318144-.2910019.4977216-.3325736.1659072-.0831434.2903376-.1247151.4562449-.1247151.207384 0 .3732912.0415717.4977216.1662868.1244304.0831434.1659072.2494302.1659072.415717 0 .0831434 0 .2078585-.0829536.415717l-.3318144 1.37186609h-.4147681l.3318145-1.45500949c.0414768-.1247151.0414768-.2494302.0414768-.3325736s-.0414768-.1247151-.0829536-.1662868-.1244304-.0831434-.2488609-.0831434c-.207384 0-.414768.0831434-.5806752.2078585s-.2903376.3741453-.3732912.74829059l-.2488608 1.0808642h-.4562448z"/><path d="m28.9922846 2.66058879.414768.0415717c-.1244304.2910019-.2488608.4988604-.4562448.6235755s-.414768.2078585-.6636288.2078585c-.2903377 0-.4977217-.0831434-.6636289-.2494302s-.2488608-.3741453-.2488608-.6651472c0-.2494302.0414768-.49886039.1659072-.74829059s.2488608-.415717.4562448-.5404321c.2073841-.1247151.4562449-.2078585.7051057-.2078585.2903376 0 .4977216.0831434.6636288.2078585s.2488608.3325736.2488608.5404321l-.414768.0415717c0-.1247151-.0414768-.2494302-.1244304-.3325736s-.207384-.1247151-.3732912-.1247151-.3318144.0415717-.4562448.1662868c-.1244305.0831434-.2073841.2494302-.2903377.4572887-.0829536.20785849-.1244304.41571699-.1244304.58200379 0 .2078585.0414768.3325736.1244304.4572887.0829536.0831434.2073841.1662868.3732913.1662868.1244304 0 .2903376-.0415717.414768-.1247151.0414768-.1662868.1659072-.2910019.2488608-.4988604z"/><path d="m29.9047742 3.49202279.0829536-.4572887h.4977217l-.1244304.4572887z"/></g></g></g></g></svg>