<svg height="36" viewBox="0 0 38 36" width="38" xmlns="http://www.w3.org/2000/svg"><path d="m132.991587 64c.592548 0 .83774-.4839319.83774-1.0081916 0-.1411468 0-.2621298-.020433-.4032766l-1.757211-10.0819155 7.417067-7.1379963c.265625-.2621298.53125-.6049149.53125-.9678639 0-.6049149-.653846-.8468809-1.144231-.9275362l-10.257211-1.4719597-4.597356-9.1745431c-.183894-.3831128-.53125-.8267171-1.001202-.8267171s-.817308.4436043-1.001202.8267171l-4.597356 9.1745431-10.257211 1.4719597c-.510818.0806553-1.144231.3226213-1.144231.9275362 0 .362949.265625.7057341.510817.9678639l7.4375 7.1379963-1.757211 10.0819155c-.020433.1411468-.040866.2621298-.040866.4032766 0 .5242597.265625 1.0081916.858173 1.0081916.286058 0 .551683-.1008192.817308-.241966l9.174279-4.7586641 9.174279 4.7586641c.245192.1411468.53125.241966.817308.241966z" fill="none" stroke="#16ac50" stroke-width="3" transform="translate(-104 -30)"/></svg>