<svg height="110" viewBox="0 0 110 110" width="110" xmlns="http://www.w3.org/2000/svg"><g fill="none" fill-rule="evenodd"><path d="m0 0h110v110h-110z" fill="#fafafa" opacity="0"/><path d="m70.9951645 53.5454545c1.015012 0 1.9682244.3937524 2.6873474 1.1096658.5000151.4973715.8333586 1.1002459 1.001903 1.7408 1.4925546-1.2170528 3.6948685-1.1341575 5.0900419.2543377.7247411.7215654 1.1255023 1.6842805 1.1311204 2.7110511.0037455.9231515-.3089981 1.7973195-.8914128 2.4925091.6479598.1657905 1.2416107.5030234 1.7285169.9872069 1.4981727 1.4902303 1.509409 3.9281039.0280907 5.4352901l-1.4551003 1.4808103c.5318513.111155 1.0431028.3504208 1.4906819.7177974.771559.6330182 1.2453561 1.5693576 1.2977921 2.5697524.0543088 1.0022788-.3164889 1.9857178-1.015012 2.6959792l-15.8712676 16.1344278c-1.6124084 1.6390649-4.7417167 3.0181402-6.9871031 2.38889-.3932704-.109271-.8165042.003768-1.1030297.2957853l-7.9777699 8.0257664c-.2752892.276945-.6348507.414476-.9944122.414476-.3595614 0-.7191229-.137531-.9925394-.414476-.5487058-.552007-.5487058-1.445015 0-1.997022l7.9721517-8.0219981c.9981576-1.0135827 2.4738578-1.4092191 3.8484313-1.0248866 1.0318665.2882494 3.131181-.5293991 4.2379562-1.6541368l15.8712675-16.1344277c.1947625-.1997022.2134896-.4352.2078715-.5576589-.0074909-.1205749-.0505633-.3504207-.2696711-.5293991-.2846528-.2354978-.7284865-.1959342-1.0093939.0904312l-6.1162902 6.2227948c-.3483252.3541887-.8127588.5501229-1.3071558.5538909h-.0093636c-.4925242 0-.9532124-.1921662-1.3034102-.5388191l-.2003806-.1997021c-.3520706-.3504208-.5468331-.8176485-.5487058-1.3150199-.0037454-.4992554.1872716-.9683671.5355967-1.3206719l9.7025413-9.8701853c.3913976-.3994043.3895249-1.0437264-.0074909-1.4393628-.1891443-.1883982-.4400882-.2901333-.7097593-.2901333h-.0056181c-.2734166 0-.5262332.107387-.7135048.2976693l-9.7025413 9.8701853c-.3483251.3541887-.8127587.5501229-1.3071557.5538909h-.0112363c-.4906516 0-.9532124-.1921663-1.3015376-.5388191-.7284865-.7253333-.7341046-1.9065905-.0149817-2.6375757l11.8056013-12.0066217c.1891443-.1921662.2921436-.4483879.2902709-.7215653-.0018727-.2731775-.1067448-.5275152-.2977618-.7159135-.1872716-.1883982-.4400883-.2920173-.7097593-.2920173h-.0056182c-.2715438.001884-.5262332.107387-.7135048.2976693l-11.8056012 12.0085056c-.7209957.7309853-1.8951886.7366372-2.6218023.0131879-.7247411-.7215654-.7303593-1.9028225-.0131091-2.6338078l9.7830681-9.9511965c.3932703-.3994044.3895249-1.0456104-.0074909-1.4393628-.1891443-.1883983-.4475791-.2863654-.7153775-.2920173-.2715438.001884-.5262331.107387-.7135047.2995532l-15.2139443 15.4674979c-.3483252.3541887-.8577039.4973714-1.3389919.3767965-.481288-.1224589-.863322-.4898355-1.0056484-.9683671l-1.0243757-3.4571082c-.2509439-.5821507-.2771619-1.2471966-.0636723-1.848187l1.4288823-4.0449109c.1872715-.5293991-.0880177-1.1115498-.6142509-1.298064-.2509439-.0904312-.5243604-.0753593-.7696862.0414476-.2471985.1168069-.4307247.322161-.5206151.5746147l-1.8876976 5.3429749c-.026218.0753593-.0599269.1469506-.0973812.216658-.0674178.1224589-.099254.2524537-.0917631.3862164.0018727.0376797.0018727.0734754 0 .109271-.1367083 5.4522459-.1853989 11.5959135-.0299635 12.5906563.0074909.0339117.013109.0697074.0187272.1055031.1741626 1.2490805-.2471985 2.5301887-1.1292477 3.4250805l-17.6466023 17.8224765c-.5468331.553891-1.4363731.555775-1.9850789.003768-.5505785-.550123-.5524512-1.445015-.0037454-1.997022l17.6428568-17.8187082c.1554354-.1601386.264053-.3541888.316489-.5670788v-.0489836l.0056182-.5312831c-.2565621-1.9932537-.0468179-11.0363706.0018727-13.0089004-.0205999-.5991065.1123629-1.1944451.3857795-1.7313801l1.8539887-5.2450078c.3408343-.9645991 1.0374847-1.738916 1.9607336-2.181652.923249-.4408519 1.9588609-.4954874 2.9176914-.1526026 1.9850789.7102615 3.0244363 2.9126373 2.3202951 4.9077749l-1.3895552 3.9281039c.0149817.0376797.0280907.0753593.039327.113039l.3764159 1.2716883 13.5472271-13.7719134c.7153775-.7272173 1.6723353-1.1322736 2.6948382-1.1379256zm19.6674407-2.4917658 9.7633338 9.8576362c1.015401 1.0252094 1.574061 2.3877089 1.574061 3.8397714 0 1.4501568-.55866 2.8126563-1.574061 3.8378657l-28.1877799 28.4600421c-1.047487 1.0576045-2.4252626 1.5873595-3.8030382 1.5873595-1.3758883 0-2.7536639-.529755-3.8030382-1.5873595-.5511103-.558339-.5511103-1.463496 0-2.021835.5529976-.5583389 1.4494954-.5583389 2.0024931 0 .9927534 1.0023423 2.6083368 1.0023423 3.6010902 0l28.1877795-28.4581364c.9927534-1.0023423.9927534-2.6335306 0-3.6377784l-9.7633334-9.8557307c-.5511102-.558339-.5511102-1.463496 0-2.0218349.5529977-.5564334 1.4494955-.5564334 2.0024931 0zm-48.5000969 18.946481 2.7114667 2.7148412c.6055333.6062869.6055333 1.587106 0 2.193393-.3038.304178-.7006.4552325-1.0974.4552325s-.7936-.1510545-1.0953333-.4552325l-2.7114667-2.7148412c-.6055333-.6062869-.6055333-1.587106 0-2.193393.6055333-.6062869 1.5872-.6062869 2.1927333 0zm-4.9405687-59.660643 13.5577768 4.3070397c1.3671865.4344492 2.1246564 1.8988427 1.692618 3.2677323l-.3908919 1.2340605c-.2113434.661037-.6658254 1.2022259-1.2811528 1.5224449-.6171978.320219-1.3204291.3801431-1.9825139.170409l-1.0324035-.3277096c-1.7337645 5.4043986.4058542 10.6664775.4301681 10.7226563.2973771.7153431-.0392762 1.5374259-.7518591 1.8370461-.1776781.074905-.3628374.1086123-.5423858.1086123-.5479968 0-1.0660688-.3220917-1.2923747-.8576627-.1215692-.290257-2.9606788-7.1927563.0261842-14.1102367.284285-.6610369 1.0249223-.9999822 1.7113209-.780885l2.1022129.6685275.2655821-.8408091-13.3613957-4.245243c-1.5934923-.5056091-3.2898509-.3595442-4.7748661.410105l-2.0554555 1.0673968.5180721.245314c2.6090631 1.2396784 3.991212 4.3931806 4.2979405 7.1609217l2.8746452.9138415.6994908-1.4044695c.0168326-.0355799.0355356-.0692871.0561089-.1029944.4619631-.7621588 1.1838974-1.316456 2.0404931-1.56177l2.1171752-.7321968c.7331561-.2528045 1.5317725.1367017 1.7842625.8707711.25249.7321967-.1365316 1.531808-.8696877 1.7846125l-2.1564515.7453052c-.0299247.0093631-.0579791.0187262-.0879039.0262167-.1664563.044943-.3085988.1479375-.4058542.2883844l-1.0736613 2.1568795c.2120647.532595.2438507 1.1335478.0483985 1.7168818l-.6177611 1.8405833c-.1013562.3010968-.255287.57303-.4492057.8096205l1.0420393 1.551078c.7540239 1.1231589.7463882 2.481485-.0248159 4.0411143-.9716409 1.969761-.2825204 3.410866 2.5102312 8.6127659.437143.8146194.9315535 1.7364751 1.4584158 2.7392283.6203993 1.179599.7387524 2.5191118.3359701 3.7702016l-.3656736 1.1386553c.4940582.3484301.7269977.9739081.5308863 1.5681336-.1928839.5891218-.7488072.969125-1.3530734.9846501l-4.3135822 13.3957237c.437941.3569678.6357692.9471091.4520289 1.5083037-.183621.5550534-.6883321.9251845-1.2527571.9781333l-.5775806 1.7946387c-.5058641 1.5709174-1.9833691 2.5755519-3.5715914 2.5755519-.3741486 0-.7540239-.0564401-1.1300813-.1730831l-20.4445452-6.3946683c-.9544605-.2972514-1.73139144-.9444317-2.19144143-1.8192539-.46195891-.8748223-.54786036-1.8738128-.24625082-2.8144819l7.29589645-22.6607176c.3073363-.9500758.8876484-1.7741019 1.6798506-2.3836554 1.4183284-1.0911761 4.93647-4.0937918 6.9809246-8.4077001.3455147-.7280779.943007-1.3319874 1.6817595-1.6988483l1.2519374-.6250418c-.2174134-.5484496-.2356514-1.1448196-.045286-1.712284l.6196977-1.8405833c.2227038-.6678061.7107157-1.2148582 1.3691444-1.5368688.4582813-.2247391.9613305-.3225916 1.4631928-.2905-.3340425-1.790002-1.2333691-3.6189693-2.6158858-4.2756712l-3.0710263-1.4587756c-.4825364-.2284604-.7930056-.7115979-.802574-1.2452963-.0091346-.5318257.2845019-1.026199.7576869-1.271513l4.5653929-2.3688718c2.1508405-1.11608512 4.6046691-1.32581923 6.9144848-.5917498zm-6.5159396 18.4404733-2.6003946 1.2939127c-.167985.0846602-.3035184.2182352-.3779664.3762676-2.2238931 4.6920573-5.8489343 7.9260775-7.8132141 9.436792-.3359701.2577433-.580312.6076722-.7120276 1.0140413l-7.2958965 22.6607176c-.07063.2219979-.0496319.4571652.0572677.6622311.1088085.2050658.2920649.3574542.5154087.4289451l20.446454 6.3927869c.2252527.0696095.4638679.0507961.6719403-.0564402.2080724-.1072362.362695-.2878447.4333251-.5079612l.5381034-1.6732929-12.2549683-3.758595c-1.1823976-.3614914-2.1349387-1.1748471-2.6784131-2.2856801-.5278909-1.0788259-.6077563-2.3120388-.2259607-3.4774721l3.1926684-9.7263784c.8006021-2.4400671 3.4088894-3.8257842 5.8126434-3.089622l12.1480303 3.7247476.3495572-1.0838269c.169894-.5324187.1183531-1.1081081-.1508048-1.6179508-.5211354-.9933465-1.0117282-1.9095581-1.4469622-2.7185335-2.7984783-5.2113066-4.2034443-7.828248-2.5522275-11.1676231.2939738-.5963842.3646039-1.0159226.2099813-1.2454459l-1.4439875-2.1476779c-.0842367-.0172501-.1684035-.0384495-.2523947-.0637982zm-5.3181241 21.6346509-3.1926684 9.7263785c-.1597308.4819885-.1305117.9828048.0798655 1.4139586.1947936.3953812.522047.6796792.923322.8039419l12.238605 3.7520701 4.257-13.219-12.1633936-3.7293897c-.8668319-.267353-1.8291126.2955946-2.1427305 1.2520406zm32.6075922-8.0943955c.5477092.5482194.5477092 1.4369709 0 1.9851903l-7.3669685 7.3738311c-.2747893.2750452-.6318283.4116323-.9907367.4116323s-.7178168-.1365871-.992606-.4116323c-.5477092-.5482194-.5477092-1.4369709 0-1.9851903l7.3669685-7.3738311c.5477092-.5482193 1.4356336-.5482193 1.9833427 0zm33.4670284 1.536085c.5231978.6155579.4799117 1.5659632-.0978644 2.1253789-1.0670978 1.0306083-2.4484907 1.5980444-3.8901078 1.5980444-.6097702 0-1.2138944-.1022588-1.7879064-.3007612-.545782.6576644-1.1837822 1.2291107-1.8838887 1.6842626-.2296049.1483755-.4836758.2185531-.7339826.2185531-.4761477 0-.9410034-.2566495-1.2063664-.7198218-.4046314-.7097963-.1957286-1.6361407.4705017-2.0672317.6888145-.4471316 1.2854106-1.0646946 1.7258002-1.7885264.4121595-.6777152 1.2534165-.886243 1.9045908-.4752027.4554456.2887307.9786435.4411164 1.5112514.4411164.7396286 0 1.4472631-.2907358 1.9949271-.8180704.575894-.5574107 1.4698472-.5132991 1.9930451.1022588zm-28.7258047-4.8563404c.7861539 0 1.4241918.6676602 1.4241918 1.490313 0 2.6408345 2.0527352 4.7908594 4.578302 4.7908594 1.00453 0 1.9596879-.3358172 2.7591343-.969697.31712-.2523597.7215905-.3517139 1.1146674-.2781917.393077.0755091.7367819.3179334.9494612.6716343.417763.6915052.9817429 1.2935917 1.6349723 1.7386985.658926.4510681.8450204 1.373075.413965 2.0625931-.2715459.4391456-.7291862.6756086-1.1925232.6756086-.2677481 0-.5373951-.0774963-.7785582-.2424243-.6000595-.4093393-1.1526459-.9061102-1.6349722-1.468455-1.0083278.520616-2.1172985.7908594-3.2661466.7908594-4.0959757 0-7.4266856-3.4873323-7.4266856-7.7714853 0-.8226528.6380379-1.490313 1.4241918-1.490313zm17.8891025-32c2.2088559 0 4.2955198.97769142 5.7449052 2.62513995.8910619-.54273421 1.9174749-.84104557 2.9702063-.84104557 2.7615398 0 5.0944677 2.01312052 5.656551 4.68060142 3.2296293.9738423 5.5512782 4.0589591 5.5512782 7.588656 0 .6947768-.086475 1.3760815-.259423 2.0362156 1.086569 1.1027898 1.710688 2.6078187 1.710688 4.2052279 0 1.9996484-.979416 3.8029886-2.5096363 4.8807587.9869353 1.354911 1.5414993 3.0158316 1.5414993 4.73449 0 4.3611195-3.4646138 7.9081378-7.724416 7.9081378-.7782692 0-1.409908-.6447374-1.409908-1.443442 0-.79678.6316388-1.4434421 1.409908-1.4434421 2.7051436 0 4.9046001-2.2517696 4.9046001-5.0212537 0-1.5935601-.7500711-3.1082119-2.007709-4.0512607-.4530505-.3406524-.6654766-.9218784-.5414047-1.4819339.1240719-.5619801.5602034-.9930881 1.1110075-1.1008651 1.394869-.2713671 2.406243-1.5261994 2.406243-2.981189 0-1.0161832-.4925278-1.9611566-1.3196739-2.5269859-.5620833-.3849179-.7782692-1.1239602-.5150864-1.7609993.2537835-.6177932.383495-1.2760028.383495-1.9534583 0-2.4846449-1.8103219-4.6228637-4.2109253-4.9692898-.6880351-.1000787-1.2031215-.7005505-1.210641-1.4126486-.0206787-1.6532223-1.349752-3.0004349-2.9664465-3.0004349-.8327857 0-1.6317336.3637474-2.1938169.9950127-.3026603.3406523-.7481912.5119408-1.195602.4619015-.4474108-.0481148-.8459448-.3156327-1.0696502-.7140227-.874143-1.5589174-2.5058766-2.52698589-4.2560424-2.52698589-1.4475056 0-2.8141764.65051119-3.7484755 1.78409439-.5019273.6100948-1.3911093.6851538-1.9870304.1712884-.5940412-.5138653-.6692363-1.4241961-.1673091-2.03429096 1.471944-1.78409438 3.6244036-2.80797594 5.902815-2.80797594zm-8.1101677 26.3949714 5.8052751 5.9522782c.5721311.58442.5721311 1.5351033 0 2.1215248-.2850892.2942115-.660001.4403165-1.0349128.4403165s-.7498236-.146105-1.0349128-.4403165l-5.8072278-5.9502767c-1.0271022-1.0527567-2.698584-1.0527567-3.7256862 0-.5721311.5864215-1.4996473.5864215-2.0717783 0-.5701784-.5864215-.5701784-1.5371048 0-2.1235263 2.1694116-2.2235982 5.6998312-2.2235982 7.8692428 0zm20.3389673-9.982297c2.4137828 2.4662818 2.5161406 6.5901297.2307703 9.190863-.4211411.478892-.8977741.878091-1.4121508 1.1923078.2595652 1.063397.1934776 2.1779782-.2036508 3.231112-.547965 1.4531332-1.6612219 2.6189237-3.1340132 3.279812-.2252505.1005699-.4613303.1477763-.6930783.1477763-.6086093 0-1.1933941-.3242868-1.4706254-.8805003-.3833589-.7676156-.0368198-1.6850598.7732154-2.0503956.6887465-.3078672 1.2085552-.851766 1.4641278-1.5331787.1678586-.4424502.209859-.907535.1283945-1.358401l.1780338.0042937c-.5638983 0-1.1333798-.084283-1.6935561-.260876-.7406982-.2307749-1.1650177-1.0655782-.9509969-1.8642602.2158819-.798682.990079-1.2582251 1.7289161-1.0254434 1.1724619.3652264 2.4193659.0020067 3.2586997-.9511941 1.2282935-1.3986969 1.172462-3.6121296-.1246904-4.9365771-.5583152-.5719205-.5825088-1.5251214-.0521094-2.1291497.5303995-.6020216 1.4143985-.6281092 1.9727137-.0561887zm-37.9347582-1.3709789 4.6019508 5.7591494c.4900226.6115386.4403101 1.5496268-.1083021 2.0958554-.2538884.2513444-.5699175.376027-.8859465.376027-.3657415 0-.7314829-.1682226-.9942486-.4967514l-4.6019508-5.7591494c-.4900226-.6115386-.4403101-1.5496268.1083021-2.0958555.5486121-.5442495 1.3901726-.4908141 1.8801951.1207245zm-23.5477691 2.2793246-.5422354 1.6173714 5.2054602 1.5606536.544172-1.6173714zm27.3598528-5.6173876 13.2542031 4.4091679c.7172306.2385914 1.1158943 1.042167.8865262 1.7961156-.1838586.6107938-.7208714 1.0001749-1.2997529 1.0001749-.1365287 0-.2766981-.0229048-.4132268-.0687143l-13.2542032-4.4091679c-.7172306-.2385914-1.1158943-1.0440757-.8883465-1.7961156.2293682-.7539486.9957491-1.1700519 1.7148001-.9314606zm14.1952418-6.1740858c.092761.7265149-.4489637 1.3876257-1.2114599 1.4760095l-14.654397 1.7128781c-.0575119.0053031-.1150238.0088384-.1706804.0088384-.693853 0-1.2930896-.4931816-1.3802851-1.1648985-.092761-.7265149.4489637-1.3876257 1.2114599-1.4760095l14.654397-1.7128781c.7624962-.0883838 1.4563491.4277776 1.5509655 1.1560601z" fill="#0daf4b"/></g></svg>