<svg xmlns="http://www.w3.org/2000/svg" width="26" height="21" viewBox="0 0 26 21">
    <path fill="#FFF" fill-rule="nonzero" d="M.686 2.55a1.322 1.322 0 0 1-.229-.367 1.192 1.192 0 0 1-.076-.445c0-.152.025-.296.076-.431a.987.987 0 0 1 .584-.584c.135-.051.28-.077.432-.077h23.181c.153 0 .297.026.432.077a.987.987 0 0 1 .584.584c.05.135.076.279.076.431 0 .17-.025.318-.076.445-.05.127-.127.25-.229.368a.987.987 0 0 1-.355.228 1.22 1.22 0 0 1-.432.076H1.473a1.22 1.22 0 0 1-.432-.076.987.987 0 0 1-.355-.228zM25.44 9.788c.102.102.178.22.229.356.05.135.076.279.076.431 0 .153-.025.296-.076.432a.987.987 0 0 1-.584.584 1.22 1.22 0 0 1-.432.076H1.473a1.22 1.22 0 0 1-.432-.076.987.987 0 0 1-.584-.584 1.22 1.22 0 0 1-.076-.432c0-.152.025-.296.076-.431a.987.987 0 0 1 .584-.584c.135-.051.28-.077.432-.077h23.181c.153 0 .297.026.432.077.135.05.254.127.355.228zm0 8.81c.102.102.178.22.229.356.05.136.076.28.076.432 0 .169-.025.317-.076.444-.05.127-.127.25-.229.368a.987.987 0 0 1-.355.229 1.22 1.22 0 0 1-.432.076H1.473a1.22 1.22 0 0 1-.432-.076.987.987 0 0 1-.355-.229 1.322 1.322 0 0 1-.229-.368 1.192 1.192 0 0 1-.076-.444c0-.153.025-.296.076-.432a.987.987 0 0 1 .584-.584c.135-.05.28-.076.432-.076h23.181c.153 0 .297.025.432.076.135.05.254.127.355.229z"/>
</svg>
