<svg height="110" viewBox="0 0 110 110" width="110" xmlns="http://www.w3.org/2000/svg"><g fill="none" fill-rule="evenodd"><path d="m0 0h110v110h-110z" fill="#fafafa" opacity="0"/><path d="m41.2704982 88.2024096.0708089.126103 3.3909855 6.7735488c.3708522.7407835.0709638 1.6419423-.6698197 2.0127945-.6972079.3490374-1.5364785.1039239-1.9419856-.5437167l-.0708089-.1261029-3.3909855-6.7735489c-.3708522-.7407834-.0709638-1.6419422.6698197-2.0127945.6972079-.3490374 1.5364785-.1039239 1.9419856.5437167zm-8.8694009-.4464578c.646653.4356213.8457032 1.2869935.4810043 1.9584614l-.0750159.1236465-4.5630375 6.7735489c-.4628476.6870688-1.3950391.868836-2.0821079.4059884-.6466531-.4356213-.8457033-1.2869935-.4810043-1.9584613l.0750158-.1236466 4.5630376-6.7735488c.4628476-.6870689 1.395039-.8688361 2.0821079-.4059885zm3.0989027-.2559518c.7796961 0 1.4204487.5948881 1.4931334 1.35554l.0068666.14446v6.7735488c0 .8284272-.6715729 1.5-1.5 1.5-.7796961 0-1.4204487-.594888-1.4931334-1.3555399l-.0068666-.1444601v-6.7735488c0-.8284271.6715729-1.5 1.5-1.5zm9.2413546-73.2310052c.6803331.1109128 1.1912729.6688129 1.2524829 1.3439603l.0061625.136495v61.3938588l-.0149764.2114356c-.2569936 1.8050014.5177933 2.4990554 3.2152345 2.4990554 2.6841336 0 3.7337271-.767232 3.7967683-2.5492582l.5029736-56.933464c0-4.0249661 2.614234-6.1705308 7.147369-6.12154.1532519.0016562.3008873.0262382.4396835.0704519.5441841-.2067749 1.135306-.3199896 1.752491-.3199896h18.3862636c10.3521695 0 18.7741929 8.3979517 18.7741929 18.7170138v47.2116429c0 3.1824967-2.1004001 5.8863641-4.9922291 6.8057837l-.000183 3.7500627c0 1.0134371-.2756849 1.9640824-.7562128 2.781193l4.3789971.0002339c.7568579 0 1.3696278.6124822 1.3696278 1.3654564 0 .7561314-.6127699 1.3686136-1.3696278 1.3686136h-41.259161c-.7568579 0-1.3712112-.6124822-1.3712112-1.3686136 0-.7529742.6143533-1.3654564 1.3712112-1.3654564l.8169087.0004483c-2.843289-2.0936609-4.6881199-5.4645779-4.6881199-9.2663783 0-.7697018.0756176-1.5217422.2198292-2.2490975-1.1295166.7284388-2.6559482 1.1028974-4.5195711 1.1028974-4.2778629 0-6.6284474-2.0258179-6.2154072-5.686077l.0141491-.1187229v-59.986l-.2418196-.0221058c-6.7525878-.579132-9.9560379 3.0979757-10.0449364 11.6763572l-.0019044.3706476v50.9269241c0 .1702654-.0289856.3388652-.0853185.4986752l-.0653879.1566163-1.6176332 3.3288854h9.328l-2.0077098-3.1164846c-.1248588-.1937833-.2029502-.4130568-.2291924-.6405507l-.0098806-.1718919v-48.815597c0-.8284271.6715729-1.5 1.5-1.5.7796961 0 1.4204487.5948881 1.4931334 1.35554l.0068666.14446-.0002172 48.3735242 3.2597641 5.0595574c.6193355.9612209-.0222594 2.2155242-1.1309709 2.307117l-.1299561.0053256h-14.4754026c-1.0632198 0-1.7744666-1.0681755-1.4016011-2.0350451l.0523075-.1202464 2.5128591-5.1747085.0003396-50.582101c0-11.2075139 5.1957347-16.4223229 15.031015-14.8189042zm37.8106454 72.8010052-6.4589164.0007576c-.5762514 2.4575546-1.9407656 4.6161724-3.8122135 6.1951598l11.0263842-.0002213c-.4804693-.8171106-.7561542-1.7677559-.7561542-2.781193zm9.714 0h-6.974l-.0000609 3.4145031c0 1.5327841 1.250874 2.7814269 2.7883406 2.7814269h1.3965453c1.5374666 0 2.7883405-1.2486428 2.7883405-2.7814269zm-27.4662262-11.4587114c-1.1040365 0-2.1850635.2032903-3.1935616.5923857-3.005486 1.3113007-5.1062122 4.3084878-5.1062122 7.7963257 0 4.6944204 3.8055796 8.5 8.5 8.5s8.5-3.8055796 8.5-8.5c0-1.0699351-.1976841-2.0936985-.5585201-3.0367583-1.3564394-3.1451584-4.4952268-5.3519531-8.1417061-5.3519531zm16.4260333-58.8772186-11.9018071-.00007.0009607 56.6069832c4.2079042 1.7090835 7.1750393 5.8375444 7.1750393 10.6590168 0 .113548-.0016456.2267116-.0049144.3394683l7.0323523.0000844c.124615-.037225.2566462-.057221.39329-.057221l9.6151668.0015631c1.275639-.2032397 2.3708218-.9521135 3.0368282-1.9978878l-6.0983655-1.7717037c-6.3414559-1.8406037-10.7685996-7.7239056-10.7685996-14.3080892v-22.6350055c0-2.6267278 2.1439029-4.7656798 4.7786551-4.7656798l12.7755871-.0005288-.000839-6.0879862c0-8.8131136-7.1917335-15.9829438-16.0333539-15.9829438zm16.0333539 24.8055288h-12.7747481c-1.1242032 0-2.0378161.9108305-2.0378161 2.0316098l.0004032 11.6887914 7.3315523.0004628c.7568579 0 1.3712112.6124822 1.3712112 1.367035v8.5668579c0 .7561313-.6143533 1.3654564-1.3712112 1.3654564h-1.6736376c-.7568579 0-1.3712112-.6093251-1.3712112-1.3654564 0-.7545528.6143533-1.3654565 1.3712112-1.3654565h.3040098v-5.8343664l-5.9619245-.0005328-.0004032 8.2122141c0 5.3765834 3.6164507 10.1817272 8.7941188 11.6845186l6.0184454 1.7474685zm-39.1884845-23.9283067-.1005335.0424155c-.9840605.442618-1.4260084 1.2610369-1.4669835 2.5192273l-.0831436 11.5330454-.4171817 45.1308437c.55429-.6952853 1.1874863-1.3248823 1.8860334-1.8752356l.0010152-56.0270025c0-.4581548.062989-.9019765.1807937-1.3232938zm8.5123235-.8772921-3.7434565.00007c-1.2176229 0-2.2072383.9866015-2.2072383 2.2005159l-.0001945 54.4239348c1.3467321-.5533678 2.8216745-.8585207 4.3678893-.8585207.5368976 0 1.0652019.0367926 1.582529.1079941zm7.4438559 3.6370777c.7568579 0 1.3696278.6124822 1.3696278 1.367035v46.8083201c0 .7561314-.6127699 1.367035-1.3696278 1.367035-.756858 0-1.3712112-.6109036-1.3712112-1.367035v-46.8083201c0-.7545528.6143532-1.367035 1.3712112-1.367035zm17.2256837 7.2250798c.7568579 0 1.3712112.6109037 1.3712112 1.367035v4.5825666c0 .7561313-.6143533 1.367035-1.3712112 1.367035s-1.3712112-.6109037-1.3712112-1.367035v-4.5825666c0-.7561313.6143533-1.367035 1.3712112-1.367035zm-5.7424224-4.3331536c.7568579 0 1.3712112.6093251 1.3712112 1.3654564v8.9172988c0 .7561313-.6143533 1.367035-1.3712112 1.367035s-1.3712112-.6109037-1.3712112-1.367035v-8.9172988c0-.7561313.6143533-1.3654564 1.3712112-1.3654564zm-5.7424224-2.8919262c.7568579 0 1.3712112.6124822 1.3712112 1.367035v11.8076464c0 .7561313-.6143533 1.367035-1.3712112 1.367035s-1.3712111-.6109037-1.3712111-1.367035v-11.8076464c0-.7545528.6143532-1.367035 1.3712111-1.367035z" fill="#0daf4b"/></g></svg>