<svg height="110" viewBox="0 0 110 110" width="110" xmlns="http://www.w3.org/2000/svg"><g fill="none" fill-rule="evenodd"><path d="m0 0h110v110h-110z" fill="#fafafa" opacity="0"/><path d="m47.2424242 19c4.8303339 0 9.363794 2.1404447 12.5500195 5.6961776l.0225563.0258224.3512699-.0876063c.622514-.1429831 1.2602322-.2278095 1.9068576-.2521131l.3889937-.0073006c5.2717699 0 9.811991 4.4805945 10.4589702 9.6250266l1.3332691-.0000066c.8953488 0 1.5988372.725 1.5988372 1.6111111v5.2361111h14.2136628c4.5406976 0 8.25 3.7377778 8.25 8.3133334 0 .8861111-.7194768 1.6111111-1.5988372 1.6111111h-1.2311047l2.5261628 11.9222222c3.9011626.2738889 6.9869186 3.5605555 6.9869186 7.54v12.9855555c0 .8861112-.719477 1.6111112-1.598837 1.6111112h-8.0901165c-.7338663 4.06-4.3008721 7.1694444-8.5537791 7.1694444-4.2688953 0-7.8343023-3.1094444-8.5681686-7.1694444h-32.3140988c-.7354651 4.06-4.3008721 7.1694444-8.5697674 7.1694444-4.252907 0-7.818314-3.1094444-8.5537791-7.1694444h-10.1526163c-.8793605 0-1.5972384-.725-1.5972384-1.6111112l-.0005988-5.2194444-8.9971777.0000501c-1.64429119 0-2.56514081-1.8596695-1.62962072-3.1601598l.09317817-.120209 9.99999995-12c.1546843-.1856211.3358784-.3361237.5334647-.450588l.0007544-18.8730933-.0015988-.0048333.0015988-.0032223v-7.7768333c0-.8861111.7178779-1.6111111 1.5972384-1.6111111l1.4657625.0000644c.5826824-5.402724 5.0363333-9.6250844 10.4732791-9.6250844 1.106216 0 2.1912126.1932308 3.2248575.5606502l.3162637.1183698.2586973-.305347c3.0513911-3.5369501 7.5643985-5.6414508 12.521736-5.7446699zm39.5148432 58.645c-2.494186 0-4.6046511 1.6755556-5.2921511 3.9633333-.1598837.5155556-.2398256 1.0472223-.2398256 1.6111111 0 .5638889.0799419 1.1116667.2398256 1.6111112.6875 2.2877777 2.7979651 3.9472222 5.2921511 3.9472222 2.4781977 0 4.5886628-1.6594445 5.2761628-3.9472222.1598838-.4994445.2398256-1.0472223.2398256-1.6111112 0-.5638888-.0799418-1.0955555-.2398256-1.6111111-.6875-2.2877777-2.7979651-3.9633333-5.2761628-3.9633333zm-49.4520348 0c-2.4781977 0-4.5886628 1.6755556-5.2761628 3.9633333-.1598838.5155556-.2398256 1.0472223-.2398256 1.6111111 0 .5638889.0799418 1.1116667.2398256 1.6111112.6875 2.2877777 2.7979651 3.9472222 5.2761628 3.9472222 2.494186 0 4.6046511-1.6594445 5.2921511-3.9472222.1598837-.4994445.2398256-1.0472223.2398256-1.6111112 0-.5638888-.0799419-1.0955555-.2398256-1.6111111-.6875-2.2877777-2.7979651-3.9633333-5.2921511-3.9633333zm60.1962209-11.745h-21.6482558v10.1000556l.0079942.0402777-.0079942.0386667v5.5293333h2.3359011c.7338663-4.0761111 4.2992733-7.1855555 8.5681686-7.1855555 4.252907 0 7.8199128 3.1094444 8.5537791 7.1855555h6.4912795v-1.7367777c-3.3959307-.0322223-6.1507272-2.7614445-6.1507272-6.1173889v-4.5111111c0-.8909445.7162791-1.6111112 1.5988372-1.6111112h3.677326c-.788227-1.0552777-2.0353201-1.7319444-3.4263085-1.7319444zm-24.8459302-28.6777778h-52.45625v4.5578334h19.7168604c.8825582 0 1.5988372.7217777 1.5988372 1.6111111 0 .8893333-.716279 1.6111111-1.5988372 1.6111111h-19.7168604v29.4269444h4.1457848c.884157 0 1.5988372.7217778 1.5988372 1.6111111 0 .8893334-.7146802 1.6111111-1.5988372 1.6111111h-4.1457848v3.9568889h8.5521802c.7354651-4.0761111 4.3008721-7.1855555 8.5537791-7.1855555 4.2688953 0 7.8343023 3.1094444 8.5697674 7.1855555h26.7805233v-3.9568889h-18.90625c-.8825582 0-1.5988373-.7217777-1.5988373-1.6111111 0-.8893333.7162791-1.6111111 1.5988373-1.6111111h18.90625zm29.1468027 33.6319445h-2.9530527v2.9c0 1.5805 1.3206397 2.8645555 2.9530527 2.8951666zm-84.801326-2.5281667-4.7281777 5.6740501 4.7281777-.0000501zm75.2083023-17.5543333h-16.3561046v11.9061111h18.8822674zm-2.1424418-6.7022223h-14.2136628v3.48h19.0101744c-.6715116-2.0138888-2.5741279-3.48-4.7965116-3.48zm-42.8244363-21.0694444c-4.5433836 0-8.5740659 2.1412148-10.8660544 5.6826602-.5922808.9151573-1.8083434 1.187455-2.7343388.6122664l-.2663237-.1570271c-.8948217-.4998363-1.8586166-.7629195-2.8378285-.7629195-2.9069333 0-5.387036 1.9893395-6.2302706 4.7527401l-.0406082.1402799 44.469.202-.0596671-.1931316c-.8598454-2.625558-3.3191582-4.7854762-5.9966656-4.8973379l-.2175461-.0045505c-.8737605 0-1.7198554.1793336-2.504852.5236267-.8498095.3727196-1.8443736.1119469-2.4019743-.6297927-2.4573157-3.268814-6.2634816-5.268814-10.3128707-5.268814z" fill="#0daf4b"/></g></svg>