<svg height="54" viewBox="0 0 69 54" width="69" xmlns="http://www.w3.org/2000/svg"><g fill="#fff"><path d="m5.01636288 6.49664547 3.08699255.03216161-2.47602527 1.80105023.93252899 2.95886819-2.50818144-1.80105019-2.50818144 1.76888859.932529-2.92670659-2.47602527-1.83321184h3.08699254l.96468517-2.92670662z"/><path d="m12.7016881 8.52282698h1.9936827l-1.6078087 1.18997961.5788111 1.92969671-1.6078086-1.1899797-1.6399648 1.1578181.6109673-1.89753511-1.60780861-1.18997961h2.02583881l.6109673-1.89753507z"/><path d="m8.58569801 16.048644h1.18977838l-.96468517.7075555.35371789 1.157818-.96468517-.7075555-.96468517.6753938.38587407-1.1256563-.96468517-.7075555h1.18977838l.38587407-1.1256564z"/><g transform="translate(1.92937)"><path d="m47.0444801 39.623105h7.5245443l-1.4148715-4.2774943c-2.5403377-.3859393-5.1771438-.7075554-7.8782623-.9005251z"/><path d="m41.2885253 22.3844814 2.9583678 8.8766047h-.3215617c2.9583679.418101 5.788111.9326867 8.4249172 1.575919l-7.074358-21.3231483h-4.0838338l-2.1544636 6.367999c-.4501864-.6432322-1.0289975-1.2543028-1.7685895-1.8653734l-10.83663-9.26254404.0964685.06432322c-.5144988-.64323222-.7717482-1.12565639-.7717482-1.54375734 0-.73971706.4501864-1.35078767 1.3184031-1.80105023.8682167-.48242417 2.0258389-.70755544 3.5050228-.70755544 2.9583678 0 4.7591135 1.70456539 5.4022369 5.08153457l3.9552092-.48242417c-.7074358-4.88856491-3.6979598-7.36500897-9.1001967-7.36500897h-.5788111c-1.5113401 0-2.8618994.16080806-3.9873654.54674739-1.1897784.35377772-2.1866197.8683635-2.9583679 1.51159573-.8039043.64323222-1.4470277 1.38294928-1.865058 2.21915117-.4180302.8362019-.6431234 1.67240379-.6431234 2.5729289 0 .93268673.2250932 1.86537345.6752796 2.76589857.4501864.93268674 1.1897784 1.80105024 2.1223074 2.63725214l10.8044739 9.262544-.0964685-.0643232c.5466549.6432322.8039043 1.1899796.8039043 1.7045654 0 .739717-.5144988 1.3507877-1.4470278 1.8010502-.9646851.4824242-2.2187759.7075555-3.7622721.7075555-3.5050228 0-5.5308617-1.7045654-6.1739851-5.0815346l-3.9552092.4824242c.6752796 4.9207265 3.9552092 7.3971705 9.8397887 7.3971705 1.6399648 0 3.1191487-.1929696 4.4375518-.578909.6431234-.1929696 1.2219345-.3859393 1.7364333-.6432322l-1.0933099 3.1839995c1.2540908.0643232 2.4760253.1286465 3.730116.2572929z"/><path d="m31.6738297 39.623105h3.7944284l1.8329018-5.4353123c-1.2862469 0-2.5724938.0321616-3.8265845.0964849z"/><path d="m65.8879971 38.304479c-.9646852-.6753939-2.1223074-1.3507877-3.4085543-1.9618583-2.797587-1.3507877-6.2704536-2.5407673-10.1613504-3.473454-2.6368062-.6432322-5.4665493-1.157818-8.4249172-1.575919-1.7685895-.2572929-3.5693351-.4502625-5.4022369-.6110706-1.2219346-.0964848-2.4760253-.1929697-3.730116-.2572929-1.6399648-.0643232-3.2799296-.1286464-4.9198944-.1286464-5.8202672 0-11.383285.5145858-16.0780861 1.4794341-8.23198016 1.7045654-13.1840307 4.6634336-13.63421711 8.104726-.32156172 2.7015754 2.18661972 5.4996355 7.13867026 7.9117564 1.28624689.6432322 2.76543085 1.2221412 4.34108325 1.7688886l.0643124-.0964848c-2.79758704-1.9618583-4.05167776-4.0845247-3.63364752-6.1428678.67527962-3.2483227 5.59517402-6.0785445 13.47343622-7.6866251 3.5693351-.739717 7.6210128-1.2221412 11.9299399-1.3829492 1.2540907-.0643233 2.5403376-.0964849 3.8265845-.0964849h.2894056c2.5724938 0 5.1449876.0964849 7.653169.2894545 2.7011185.1929697 5.3379246.5145858 7.8782622.9005251 4.6304888.7075555 8.9715721 1.736727 12.6695319 3.0553531z"/><path d="m59.3924503 27.1765615 2.7654308.0321616-2.2187759 1.6080806.8039043 2.6050905-2.2187759-1.6080806-2.2187759 1.6080806.8360605-2.6050905-2.1866197-1.6402422h2.7332747l.8682166-2.6050905z"/><path d="m64.8268434 41.2633472h1.7042771l-1.3827154.99701.5144988 1.6402421-1.3827154-.9970099-1.3827154.9970099.5144987-1.6402421-1.3505592-.99701h1.7042771l.546655-1.6402422z"/><g transform="translate(16.72121 40.845246)"><path d="m3.21561723 6.65745352c-1.02899751 0-1.80074565-.32161611-2.34740058-.96484833-.51449875-.61107062-.77174813-1.35078767-.77174813-2.21915118 0-.8683635.25724938-1.57591895.73959196-2.18698956.54665493-.67539384 1.28624689-.99700995 2.28308824-.99700995.06431234 0 .16078086 0 .28940555.03216161.12862469 0 .28940555.03216161.45018641.06432323.19293703.03216161.32156172.03216161.41803024.03216161 0 0 .03215617-.03216161.06431234-.06432323.03215618-.03216161.09646852-.03216161.12862469-.06432322.06431235-.03216161.09646852-.03216161.12862469-.06432322.03215618 0 .06431235-.03216161.09646852-.03216161.19293703 0 .3537179.19296967.51449876.61107061.16078086.35377772.2250932.64323223.2250932.80404028 0 .06432322-.03215617.12864645-.09646851.16080806-.06431235.03216161-.16078087.06432322-.28940555.06432322-.16078087-.12864644-.28940556-.25729289-.41803024-.35377772-.12862469-.09648484-.25724938-.19296967-.38587407-.25729289-.16078086-.09648484-.32156173-.16080806-.48234259-.22513128s-.35371789-.06432322-.54665493-.06432322c-.51449875 0-.93252899.2894545-1.18977837.8683635-.19293704.41810094-.28940555.93268672-.28940555 1.54375734 0 .73971706.09646851 1.31862606.28940555 1.70456539.28940555.57890901.77174813.86836351 1.41487158.86836351.16078086 0 .32156172-.03216162.48234258-.06432323.16078087-.03216161.32156173-.09648483.48234259-.19296966.28940555-.16080806.51449876-.2894545.64312345-.35377773.16078086-.09648483.25724937-.12864644.28940555-.12864644.06431234 0 .12862469 0 .16078086.03216161s.06431234.06432322.09646852.09648483c.03215617.03216161.03215617.06432323.03215617.09648484v.12864644c0 .06432322-.03215617.12864645-.09646852.19296967-.03215617.06432322-.09646852.16080805-.19293703.22513128-.06431235.06432322-.16078087.12864644-.28940555.19296966-.12862469.06432323-.25724938.12864645-.41803024.19296967-.48234259.19296967-.96468517.32161611-1.41487159.32161611z"/><path d="m8.16766777 5.85341324c0 .06432323.03215617.12864645.06431235.19296967.03215617.06432322.09646851.09648483.2250932.09648483h.5788111.3537179.19293703.09646852c.09646852 0 .22509321-.03216161.35371793-.12864644.1286247-.09648483.2572493-.19296967.385874-.32161611.0964686-.06432322.1607809-.09648484.2572494-.12864645.0643124 0 .0964685.06432323.0964685.16080806 0 .06432322-.0643123.19296967-.1607808.41810094-.0321562.06432323-.0643124.16080806-.0964685.22513128-.0321562.06432323-.0643124.12864645-.0964686.16080806-.0321561.03216161-.0643123.06432322-.1286247.09648483-.0643123.03216161-.1286246.03216161-.192937.03216161h-3.53717895c-.12862468 0-.19293703-.06432322-.19293703-.19296966 0-.09648484.09646852-.16080806.25724938-.19296967.16078086-.06432322.25724938-.16080806.25724938-.2894545v-3.7307469c0-.16080806-.09646852-.25729289-.25724938-.28945451-.16078086-.06432322-.25724938-.12864644-.25724938-.19296966 0-.12864645.06431235-.19296967.19293703-.19296967h1.92937034c.12862469 0 .19293704.06432322.19293704.19296967 0 .09648483-.09646852.16080805-.25724938.19296966-.16078086.06432323-.25724938.16080806-.25724938.28945451z"/><path d="m13.1197183 3.37696918c.1286247.03216161.2250932.06432322.3537179.06432322h.2572494.2572494c.1607808 0 .2572493.03216161.3537179.06432322.0964685.03216162.1286246.12864645.1286246.25729289 0 .12864645-.0643123.19296967-.1286246.25729289-.0964686.03216161-.2250932.06432323-.3858741.06432323-.1286247 0-.2572494 0-.3537179 0s-.1607809 0-.1607809 0c-.0643123 0-.1286247 0-.2250932.03216161s-.1286247.09648483-.1286247.19296966v1.60808057c0 .12864644.0321562.19296966.0964686.22513127.0643123.03216162.1286246.03216162.2572493.03216162h.4501864.5144988c.1286247 0 .2572494-.03216162.3858741-.06432323s.2250932-.09648483.3215617-.19296966c.0964685-.09648484.192937-.16080806.2572494-.22513128.0643123-.06432322.1286247-.09648484.1286247-.09648484.0643123 0 .1286247 0 .1607808.03216162.0321562.03216161.0643124.06432322.0643124.12864644 0 .03216161 0 .06432322-.0321562.16080806-.0321562.06432322-.0643123.12864644-.0964685.22513127-.0321562.09648484-.0964685.16080806-.1286247.25729289-.0643124.06432323-.0964685.12864645-.1286247.19296967-.0643123.06432322-.0964685.09648484-.192937.09648484-.0643124.03216161-.1286247.03216161-.1607809.03216161h-3.4728666c-.0643124 0-.1286247-.03216161-.1607809-.06432323-.0321561-.03216161-.0643123-.09648483-.0643123-.16080805 0-.03216161.0321562-.06432322.0964685-.09648484.0643123-.03216161.0964685-.06432322.1607809-.06432322.0643123-.03216161.1286247-.06432322.1607808-.09648483.0643124-.03216161.0964685-.09648484.0964685-.19296967v-3.79507012c0-.06432323-.0321561-.12864645-.0964685-.16080806-.0643123-.03216161-.0964685-.06432322-.1607808-.09648483-.0643124-.03216162-.1286247-.06432323-.1607809-.09648484-.0643123-.03216161-.0964685-.06432322-.0964685-.12864644 0-.12864645.0643123-.19296967.192937-.19296967h3.3442419c.0964686 0 .1607809.03216161.2250932.06432322.0643124.03216161.1286247.09648484.1929371.19296967.0643123.06432322.0964685.16080806.1286247.25729289.0321561.09648483.0643123.19296967.0643123.2894545 0 .03216161 0 .03216161-.0321562.06432322-.0321561.03216161-.0321561.06432323-.0643123.06432323-.0321562.03216161-.0643123.03216161-.0964685.03216161s-.0643124 0-.0964685-.03216161c-.1607809-.09648484-.2894056-.19296967-.3858741-.25729289-.0964685-.06432323-.192937-.09648484-.2894056-.12864645-.0964685-.03216161-.2250932-.06432322-.3537178-.06432322-.1286247 0-.3215618 0-.5788111 0-.1929371 0-.3215618.03216161-.3858741.06432322-.0643124.06432322-.0964685.12864645-.0964685.19296967v.578909.32161611.12864645c.0643123 0 .0643123.03216161.0643123.03216161z"/><path d="m19.3901719 6.65745352c-.1607808 0-.2250932-.06432322-.2250932-.19296966 0-.06432323.0643124-.12864645.1607809-.16080806.1286247-.03216161.2250932-.09648483.2894055-.16080806.0643124-.06432322.0964685-.12864644.0643124-.19296966l-.2572494-.70755545c-.1607809-.03216161-.3215617-.03216161-.4823426-.03216161-.2250932.06432322-.4180302.06432322-.6109673 0-.1607808-.03216161-.2250932-.12864645-.2250932-.22513128s.0321562-.16080806.1286247-.19296967.2250932-.06432322.3858741-.06432322h.2894055c.0964685 0 .1929371-.03216161.2250932-.06432322 0-.06432322-.0321561-.16080806-.0964685-.32161611-.0643123-.16080806-.1286247-.32161612-.192937-.48242417-.0643124-.16080806-.1286247-.32161611-.192937-.45026256-.0643124-.12864644-.0964686-.22513128-.1286247-.2894545-.0643124.12864644-.1607809.32161611-.2572494.578909s-.2250932.54674739-.3537179.90052512c-.1607809.38593933-.2572494.70755544-.3215617.96484833-.0643124.25729289-.0964686.41810095-.0964686.48242417 0 .12864645.0643124.22513128.2250933.25729289.1607808.06432322.2250932.12864645.2250932.19296967 0 .12864644-.0643124.19296967-.2250932.19296967h-1.3184031c-.0643124 0-.1286247-.03216162-.1286247-.06432323-.0321562-.03216161-.0321562-.09648483-.0321562-.16080805.1607809-.09648484.2894056-.19296967.4180303-.2894545.1286247-.09648484.2250932-.19296967.2572493-.28945451.2572494-.67539383.5144988-1.35078767.739592-1.99401989.2250932-.67539384.4823426-1.35078767.739592-2.02618151.0321561-.09648483.0964685-.16080805.192937-.19296967.0964685-.03216161.192937-.06432322.2894056-.06432322.1286246 0 .2250932.03216161.3537179.06432322.1286246.03216162.192937.09648484.2250932.19296967.2572493.67539384.5144987 1.35078767.8039043 1.9940199.2572493.67539383.5144987 1.31862606.7717481 1.99401989.0321562.06432323.0964685.12864645.1607809.19296967.0643123.06432322.192937.12864645.3537179.22513128.0643123.06432322.1286246.09648483.192937.12864644.0643123.03216162.0964685.06432323.0964685.12864645 0 .12864644-.0643123.19296967-.2250932.19296967h-2.2187759z"/><path d="m26.9468724 2.25131279v.77187867c0 .2894545 0 .61107061.0321562.93268672v.93268673.83620189c0 .25729289 0 .45026256-.0321562.61107061 0 .16080806-.0321562.22513128-.0643123.25729289-.0321562.03216161-.0643124.06432322-.1286247.06432322-.0643124 0-.0964685.03216162-.1607809.03216162-.0643123 0-.0964685 0-.1607808-.03216162-.0643124 0-.0964686-.03216161-.1286247-.06432322-.4501864-.54674739-.9003729-1.09349478-1.3827154-1.70456539-.4823426-.57890901-.9968414-1.15781801-1.5434963-1.7045654v2.76589857c0 .12864644.0964685.22513128.2572494.25729289.1607808.06432322.2572493.12864644.2572493.22513128 0 .12864644-.0643123.19296966-.192937.19296966h-1.3184031c-.1286246 0-.192937-.06432322-.192937-.19296966 0-.06432323.0964685-.16080806.2572494-.19296967.1607808-.03216161.2572494-.12864645.2572494-.2894545v-3.69858529c0-.12864645-.0964686-.22513128-.2572494-.28945451-.1607809-.03216161-.2572494-.09648483-.2572494-.19296966 0-.12864645.0643124-.19296967.192937-.19296967h1.1254661c.0321561 0 .1286247.06432322.2572494.16080806.1286246.12864644.2572493.25729289.4180302.45026255.1607809.19296967.3537179.38593934.5144987.61107062.1929371.22513128.3858741.45026255.5788111.67539383.1929371.22513128.3858741.41810095.546655.61107062.1607808.19296966.3215617.35377772.4501864.45026255 0 0 0-.03216161 0-.06432322s0-.12864644 0-.25729289c0-.12864644 0-.35377772 0-.67539383 0-.28945451 0-.73971706 0-1.28646445 0-.12864645-.0964685-.22513128-.3215617-.28945451-.0964685-.03216161-.1607809-.09648483-.1607809-.16080805 0-.12864645.0643124-.19296967.192937-.19296967h1.2862469c.1286247 0 .2250932.06432322.2250932.19296967 0 .09648483-.0964685.16080805-.2572493.19296967-.1929371.03216161-.2894056.12864644-.2894056.25729289z"/><path d="m28.3295878 6.65745352c-.1286247 0-.192937-.06432322-.192937-.19296966 0-.09648484.0964685-.16080806.2572494-.19296967.1607808-.06432322.2572493-.16080806.2572493-.2894545v-3.7307469c0-.12864645-.0964685-.22513128-.2572493-.28945451-.1607809-.03216161-.2572494-.09648483-.2572494-.19296966 0-.12864645.0643123-.19296967.192937-.19296967h1.9293704c.1286247 0 .192937.06432322.192937.19296967 0 .09648483-.0964685.16080805-.2572494.19296966-.1607808.06432323-.2572494.16080806-.2572494.28945451v3.7307469c0 .12864644.0964686.22513128.2572494.2894545.1607809.06432322.2572494.12864644.2572494.19296967 0 .12864644-.0643123.19296966-.192937.19296966z"/><path d="m35.7898198 2.25131279v.77187867c0 .2894545 0 .61107061.0321562.93268672v.93268673.83620189c0 .25729289 0 .45026256-.0321562.61107061 0 .16080806-.0321562.22513128-.0643123.25729289-.0321562.03216161-.0643124.06432322-.1286247.06432322-.0643124 0-.0964685.03216162-.1607809.03216162-.0643123 0-.0964685 0-.1607809-.03216162-.0643123 0-.0964685-.03216161-.1286246-.06432322-.4501865-.54674739-.9003729-1.09349478-1.3827155-1.70456539-.4823425-.57890901-.9968413-1.15781801-1.5434962-1.7045654v2.76589857c0 .12864644.0964685.22513128.2572494.25729289.1607808.06432322.2572493.12864644.2572493.22513128 0 .12864644-.0643123.19296966-.192937.19296966h-1.3505592c-.1286247 0-.1929371-.06432322-.1929371-.19296966 0-.06432323.0964685-.16080806.2572494-.19296967s.2572494-.12864645.2572494-.2894545v-3.69858529c0-.12864645-.0964685-.22513128-.2572494-.28945451-.1607809-.03216161-.2572494-.09648483-.2572494-.19296966 0-.12864645.0643124-.19296967.1929371-.19296967h1.125466c.0321562 0 .1286247.06432322.2572494.16080806.1286247.12864644.2572493.25729289.4180302.45026255.1607809.19296967.3537179.38593934.5466549.61107062.1929371.22513128.3858741.45026255.5788111.67539383.1929371.22513128.3537179.41810095.546655.61107062.1607808.19296966.3215617.35377772.4501864.45026255 0 0 0-.03216161 0-.06432322s0-.12864644 0-.25729289c0-.12864644 0-.35377772 0-.67539383 0-.28945451 0-.73971706 0-1.28646445 0-.12864645-.0964685-.22513128-.3215617-.28945451-.0964686-.03216161-.1607809-.09648483-.1607809-.16080805 0-.12864645.0643123-.19296967.192937-.19296967h1.2862469c.1286247 0 .2250932.06432322.2250932.19296967 0 .09648483-.0964685.16080805-.2572493.19296967-.2250933.03216161-.2894056.12864644-.2894056.25729289z"/><path d="m41.5136185 5.62828197s.0321561.03216161.0643123.03216161.0643124.03216161.0964685.03216161h.0321562c0 .03216161.0321562.06432322.0321562.09648483s.0321562.06432322.0321562.09648483c0 .09648484-.0964686.22513128-.2572494.32161612-.1607809.09648483-.4180303.19296966-.7074358.2894545-.2250932.06432322-.4501864.09648483-.6752796.12864644s-.4501864.06432323-.6431235.06432323c-.4180302 0-.7717481-.06432323-1.0933098-.19296967-.3215618-.12864645-.5788111-.32161611-.8039043-.54674739-.2250933-.22513128-.3858741-.51458578-.5144988-.80404028-.1286247-.32161612-.192937-.64323223-.192937-1.02917156 0-.32161612.0643123-.64323223.192937-.96484834.1286247-.2894545.2894055-.54674739.5144988-.77187867.2250932-.22513128.4823425-.41810095.8039043-.54674739.3215617-.12864644.6431234-.22513128.9968413-.22513128h.3537179c.1286247 0 .2250932.03216161.3537179.03216161.0964685.03216161.192937.03216161.2894055.03216161.0643124 0 .1286247 0 .1607809-.03216161s.0643124-.03216161.1286247-.06432322.1286247-.06432322.192937-.06432322c.0643124 0 .1286247.03216161.1929371.12864644.0643123.09648484.1286247.22513128.192937.38593934.0643123.16080805.1286247.2894545.1607809.35377772.0321561.09648483.0321561.16080806.0321561.19296967s-.0321561.06432322-.0643123.09648483-.0643124.06432322-.0964685.09648484c-.0321562.03216161-.0964685.03216161-.1286247.03216161s-.0643124-.03216161-.0964685-.06432323c-.0321562-.03216161-.0643124-.06432322-.0964686-.09648483-.0321561-.03216161-.0643123-.03216161-.0643123-.06432322-.0321562 0-.0643123-.03216161-.0643123-.06432322-.0321562-.03216162-.0643124-.03216162-.0964686-.09648484-.1286246-.12864644-.2894055-.22513128-.5144987-.2894545-.1929371-.06432322-.3858741-.09648483-.6109673-.09648483-.2572494 0-.4501864.06432322-.6431234.19296966-.1607809.12864645-.3215618.32161612-.4180303.51458578-.0964685.19296967-.192937.41810095-.2250932.67539384-.0643123.25729289-.0643123.48242417-.0643123.67539384 0 .25729289.0321561.51458578.0964685.73971705.0643123.22513128.1286247.45026256.2572494.61107062.1286247.19296967.2894055.32161611.4823426.41810094.192937.09648484.4501864.16080806.7395919.16080806h.192937c.0643124 0 .1286247 0 .1607809-.03216161s.0964685-.06432322.1286247-.09648484c.0321562-.03216161.0643123-.09648483.0643123-.16080805v-.83620189c0-.12864645-.0643123-.22513128-.2250932-.2894545-.2250932-.06432323-.3215617-.12864645-.3215617-.22513128 0-.06432323.0321562-.12864645.0964685-.16080806.0643124-.03216161.1607809-.03216161.2572494-.03216161h1.4470278c.0964685 0 .192937 0 .2572493.03216161.0643124.03216161.0964686.06432322.0964686.16080806 0 .06432322-.0964686.16080805-.2894056.22513128-.0643123.03216161-.0964685.06432322-.1286247.12864644s-.0643123.09648483-.0643123.16080806z"/></g><g transform="translate(35.050228 48.885649)"><path d="m.25724938 1.89753506.35371789-.03216161v.09648483c0 .09648484.03215618.19296967.06431235.25729289.06431234.06432323.12862469.12864645.22509321.19296967.09646851.03216161.25724937.06432322.38587406.06432322.22509321 0 .38587407-.03216161.48234259-.12864644.12862469-.09648483.16078086-.19296967.16078086-.2894545 0-.06432322-.03215617-.16080806-.09646852-.22513128-.06431234-.06432322-.2250932-.16080806-.51449875-.25729289-.22509321-.09648483-.3537179-.16080806-.45018642-.19296967-.12862469-.06432322-.2250932-.16080805-.25724938-.22513128-.06431234-.09648483-.09646851-.19296966-.09646851-.2894545 0-.12864644.03215617-.22513127.12862469-.35377772.06431234-.09648483.19293703-.19296967.32156172-.22513128.16078086-.06432322.32156172-.06432322.51449876-.06432322.2250932 0 .41803024.03216161.54665493.09648483.16078086.06432323.25724938.16080806.32156172.25729289.06431234.09648484.09646852.22513128.09646852.32161611v.06432323l-.3537179.03216161c0-.06432322 0-.12864645-.03215617-.16080806-.03215617-.06432322-.06431235-.12864644-.12862469-.16080805s-.12862469-.09648484-.22509321-.12864645c-.09646851-.03216161-.19293703-.03216161-.28940555-.03216161-.19293703 0-.35371789.03216161-.45018641.12864645-.09646852.06432322-.12862469.12864644-.12862469.25729288 0 .06432323.03215617.12864645.06431235.16080806.03215617.03216161.09646851.09648483.19293703.12864645.06431234.03216161.22509321.09648483.45018641.19296966.19293704.06432323.32156173.12864645.41803024.19296967.09646852.06432322.16078086.12864645.22509321.22513128.06431234.09648483.06431234.19296967.06431234.2894545 0 .12864644-.03215617.25729289-.12862469.35377772-.09646851.09648484-.2250932.19296967-.38587406.25729289-.16078087.06432323-.3537179.09648484-.54665493.09648484-.32156173 0-.54665493-.06432323-.73959197-.19296967-.06431234-.16080806-.16078086-.38593934-.19293703-.70755545z"/><path d="m4.21245857 2.09050473.32156173.03216161c-.03215617.16080806-.16078086.2894545-.32156173.41810095-.16078086.12864644-.35371789.19296966-.61096727.19296966-.16078086 0-.28940555-.03216161-.38587407-.09648483-.12862469-.06432322-.2250932-.16080806-.28940555-.25729289-.06431234-.12864644-.09646852-.25729289-.09646852-.38593933 0-.19296967.06431235-.38593934.16078087-.54674739.09646851-.19296967.2250932-.32161612.38587406-.41810095.16078087-.09648483.32156173-.12864645.51449876-.12864645.22509321 0 .41803024.06432323.5788111.19296967.12862469.12864645.22509321.32161611.22509321.54674739 0 .09648484 0 .16080806-.03215617.25729289h-1.44702776v.09648484c0 .16080805.03215618.2894545.12862469.38593933.09646852.09648483.19293704.12864645.32156173.12864645.12862468 0 .2250932-.03216162.35371789-.09648484.03215617-.09648483.12862469-.19296967.19293703-.32161611zm-.99684134-.45026256h1.09330986c0-.03216161 0-.06432322 0-.06432322 0-.16080806-.03215617-.25729289-.12862469-.35377772-.09646851-.09648484-.19293703-.12864645-.32156172-.12864645s-.28940555.03216161-.38587407.12864645c-.09646852.12864644-.19293703.25729289-.25724938.41810094z"/><path d="m4.95205054 2.70157534.41803024-1.76888861h.28940555l-.09646852.35377772c.09646852-.12864645.19293704-.22513128.28940555-.2894545.09646852-.06432322.19293704-.09648484.28940555-.09648484.06431235 0 .16078087.03216162.25724938.06432323l-.12862469.2894545c-.06431234-.03216161-.12862469-.06432322-.19293703-.06432322-.12862469 0-.22509321.06432322-.3537179.19296966-.12862468.12864645-.2250932.32161612-.28940555.64323223l-.16078086.70755544h-.32156172z"/><path d="m6.81710853 2.70157534-.32156172-1.76888861h.32156172l.16078087.96484833c.03215617.09648484.03215617.2894545.06431234.51458578.06431234-.12864644.16078086-.25729289.25724938-.41810094l.64312345-1.06133317h.35371789l-1.12546603 1.76888861z"/><path d="m8.29629246 2.70157534.48148148-1.76888861h.37037037l-.48148148 1.76888861zm.55555556-2.12266634.07407407-.35377772h.37037037l-.07407407.35377772z"/><path d="m10.6115369 2.05834312.3215617.03216161c-.0964685.22513128-.192937.38593933-.3537179.48242417-.1607809.09648483-.3215617.16080805-.5144988.16080805-.22509317 0-.38587403-.06432322-.51449872-.19296966-.12862469-.12864645-.19293703-.2894545-.19293703-.51458578 0-.19296967.03215617-.38593934.12862469-.578909.09646851-.19296967.19293703-.32161612.35371789-.41810095.16078087-.09648483.35371787-.16080806.54665497-.16080806.2250932 0 .385874.06432323.5144987.16080806s.1929371.25729289.1929371.41810095l-.3215618.03216161c0-.09648484-.0321561-.19296967-.0964685-.25729289-.0643123-.06432323-.1607808-.09648484-.2894055-.09648484s-.2572494.03216161-.3537179.12864645c-.09646855.06432322-.1607809.19296967-.22509324.35377772-.06431234.16080806-.09646852.32161611-.09646852.45026256 0 .16080805.03215618.25729289.09646852.35377772.06431234.06432322.16078086.12864645.28940554.12864645.0964685 0 .2250932-.03216161.3215617-.09648484.0643124-.12864644.1286247-.22513128.1929371-.38593933z"/><path d="m12.7016881 2.09050473.3215617.03216161c-.0321562.16080806-.1607809.2894545-.3215617.41810095-.1607809.12864644-.3537179.19296966-.6109673.19296966-.1607809 0-.2894056-.03216161-.3858741-.09648483-.1286247-.06432322-.2250932-.16080806-.2894055-.25729289-.0643124-.12864644-.0964685-.25729289-.0964685-.38593933 0-.19296967.0643123-.38593934.1607808-.54674739.0964685-.19296967.2250932-.32161612.3858741-.41810095s.3215617-.12864645.5144987-.12864645c.2250933 0 .4180303.06432323.546655.19296967.1286247.12864645.2250932.32161611.2250932.54674739 0 .09648484 0 .16080806-.0321562.25729289h-1.4470277v.09648484c0 .16080805.0321561.2894545.1286246.38593933.0964686.09648483.1929371.12864645.3215618.12864645s.2250932-.03216162.3537179-.09648484c.0643123-.09648483.1607808-.19296967.2250932-.32161611zm-.9968414-.45026256h1.0933099c0-.03216161 0-.06432322 0-.06432322 0-.16080806-.0321562-.25729289-.1286247-.35377772-.0964685-.09648484-.192937-.12864645-.3215617-.12864645s-.2894056.03216161-.3858741.12864645c-.0964685.12864644-.192937.25729289-.2572494.41810094z"/><path d="m13.4734362 2.09050473.3215617-.03216161c0 .09648483 0 .16080805.0321562.22513128.0321562.06432322.0964685.09648483.1607809.16080805.0964685.03216161.1607808.06432323.2894055.06432323.1607809 0 .2572494-.03216162.3215617-.06432323.0643124-.06432322.0964686-.12864644.0964686-.19296966 0-.06432323-.0321562-.09648484-.0643124-.16080806-.0321562-.03216161-.1607809-.09648483-.3215617-.16080806-.192937-.06432322-.2894056-.12864644-.3537179-.12864644-.0964685-.03216161-.1286247-.09648483-.192937-.16080806-.0321562-.06432322-.0643124-.12864644-.0643124-.22513128 0-.12864644.0643124-.25729289.192937-.35377772.1286247-.09648483.2894056-.16080806.5144988-.16080806.2572494 0 .4501864.06432323.5788111.16080806s.192937.22513128.192937.41810095l-.3215617.03216161c0-.09648484-.0321562-.19296967-.1286247-.25729289-.0643123-.06432322-.192937-.09648484-.3215617-.09648484s-.192937.03216162-.2572494.06432323c-.0643123.03216161-.0964685.09648483-.0964685.16080805 0 .06432323.0321562.09648484.0964685.16080806.0321562.03216161.1286247.06432322.2894056.12864644.2572494.09648484.4180302.19296967.4823426.22513128.0964685.09648484.1607808.19296967.1607808.32161611 0 .09648484-.0321562.16080806-.0964685.25729289-.0643123.09648484-.1607809.16080806-.2894055.19296967-.1286247.06432322-.2572494.06432322-.4501865.06432322-.2250932 0-.4180302-.06432322-.5788111-.16080805-.0964685-.09648484-.192937-.25729289-.192937-.48242417z"/><path d="m15.5314312 2.70157534.0643124-.35377772h.385874l-.0643123.2894545c-.0321562.19296967-.0964685.32161611-.192937.38593934-.0964685.09648483-.1929371.12864644-.3215618.12864644l.0321562-.12864644c.1607809-.03216162.2572494-.16080806.2894056-.35377773h-.1929371z"/><path d="m17.8466756 2.70157534.5788111-2.44428245h.3537179l-.5788111 2.44428245z"/><path d="m18.9078293 2.70157534.4180303-1.76888861h.2894055l-.0643123.32161611c.1286247-.12864645.2572494-.22513128.385874-.25729289.1286247-.06432322.2250932-.09648484.3537179-.09648484.1607809 0 .2894056.03216162.3858741.12864645.0964685.06432322.1286247.19296967.1286247.32161611 0 .06432322 0 .16080806-.0643123.32161611l-.2572494 1.06133317h-.3215618l.2572494-1.12565639c.0321562-.09648483.0321562-.19296967.0321562-.25729289s-.0321562-.09648483-.0643123-.12864644c-.0321562-.03216161-.0964686-.06432323-.1929371-.06432323-.1607808 0-.3215617.06432323-.4501864.16080806s-.2250932.2894545-.2894055.578909l-.1929371.83620189h-.3537179z"/><path d="m22.4771645 2.05834312.3215617.03216161c-.0964685.22513128-.1929371.38593933-.3537179.48242417-.1607809.09648483-.3215617.16080805-.5144988.16080805-.2250932 0-.385874-.06432322-.5144987-.19296966-.1286247-.12864645-.1929371-.2894545-.1929371-.51458578 0-.19296967.0321562-.38593934.1286247-.578909.0964685-.19296967.1929371-.32161612.3537179-.41810095.1607809-.09648483.3537179-.16080806.546655-.16080806.2250932 0 .385874.06432323.5144987.16080806s.192937.25729289.192937.41810095l-.3215617.03216161c0-.09648484-.0321562-.19296967-.0964685-.25729289-.0643123-.06432323-.1607809-.09648484-.2894055-.09648484-.1286247 0-.2572494.03216161-.3537179.12864645-.0964686.06432322-.1607809.19296967-.2250933.35377772-.0643123.16080806-.0964685.32161611-.0964685.45026256 0 .16080805.0321562.25729289.0964685.35377772.0643124.06432322.1607809.12864645.2894056.12864645.0964685 0 .2250932-.03216161.3215617-.09648484.0321562-.12864644.1286247-.22513128.1929371-.38593933z"/><path d="m23.1846002 2.70157534.0643124-.35377772h.3858741l-.0964686.35377772z"/></g></g></g></svg>